<svg width="131" height="112" viewBox="0 0 131 112" fill="none" xmlns="http://www.w3.org/2000/svg">
<path d="M35.1181 32.9667C35.6945 32.8761 36.2816 32.9444 36.813 33.162L74.6019 48.6471L74.6031 48.6478C77.2865 49.747 77.0409 53.6415 74.0904 54.3754L58.3169 58.2982C57.5598 58.4862 56.8539 58.8419 56.2541 59.3386C55.6542 59.8354 55.1755 60.4611 54.8566 61.1684L54.8561 61.1705L48.1227 76.1737L48.1229 76.1746C46.905 78.8905 42.9363 78.5077 42.2493 75.7465L32.5449 36.7091L32.5023 36.5053C32.4188 36.0271 32.4542 35.5324 32.6097 35.0638C32.7874 34.5281 33.1153 34.0464 33.5583 33.6746C34.0014 33.3028 34.5417 33.0573 35.1181 32.9667Z" stroke="#1A4FE8" stroke-width="2"/>
<path d="M24.0376 16.5172C26.1818 8.51521 34.4068 3.76648 42.4088 5.91061L92.2476 19.2649C100.25 21.409 104.998 29.634 102.854 37.636L89.4999 87.4748C87.3558 95.4768 79.1307 100.226 71.1287 98.0814L21.29 84.7271C13.288 82.583 8.53926 74.358 10.6834 66.356L24.0376 16.5172Z" fill="white" fill-opacity="0.8"/>
<path d="M52.133 12.9903C56.2751 5.81596 65.449 3.35784 72.6234 7.49997L117.308 33.2984C124.482 37.4406 126.94 46.6144 122.798 53.7888L96.9995 98.473C92.8574 105.647 83.6835 108.106 76.5091 103.963L31.8249 78.1649C24.6505 74.0228 22.1924 64.8489 26.3345 57.6746L52.133 12.9903Z" fill="white" fill-opacity="0.4"/>
<rect y="12.9082" width="81.5969" height="81.5969" rx="15" fill="white"/>
<path d="M23.3336 33.7077C23.7756 33.6382 24.2239 33.6909 24.6273 33.8559L62.4174 49.3417L62.4183 49.3415C64.3937 50.1504 64.2954 53.0789 62.009 53.6476L46.2355 57.5704C45.3699 57.7853 44.5627 58.1924 43.876 58.761C43.1888 59.3301 42.6392 60.0477 42.2728 60.8604L42.2716 60.8637L35.5382 75.8668L35.5384 75.8678C34.5964 77.9683 31.5827 77.5985 31.0767 75.5655L21.3723 36.5281L21.3405 36.376C21.2786 36.0205 21.3047 35.6515 21.4212 35.3003C21.5546 34.8982 21.8019 34.5327 22.1399 34.2491C22.478 33.9655 22.8914 33.7773 23.3336 33.7077Z" stroke="#1A4FE8" stroke-width="3.5"/>
</svg>
