<svg width="12" height="21" viewBox="0 0 12 21" fill="none" xmlns="http://www.w3.org/2000/svg">
<path d="M1.76855 0.57666C1.95887 0.576661 2.14741 0.614181 2.32324 0.687012C2.49903 0.75984 2.65842 0.866918 2.79297 1.00146L11.2549 9.4624L11.2559 9.46338C11.391 9.59746 11.4981 9.75736 11.5713 9.93311C11.6445 10.1088 11.6826 10.2974 11.6826 10.4878C11.6826 10.6781 11.6445 10.8668 11.5713 11.0425C11.4981 11.218 11.3909 11.3773 11.2559 11.5112L2.79297 19.9741V19.9751C2.65889 20.1103 2.49899 20.2173 2.32324 20.2905C2.14749 20.3637 1.95894 20.4009 1.76855 20.4009C1.57817 20.4009 1.38961 20.3637 1.21387 20.2905C1.03812 20.2173 0.87822 20.1103 0.744141 19.9751L0.743164 19.9731L0.647461 19.8677C0.556813 19.758 0.482656 19.6352 0.427734 19.5034C0.354576 19.3277 0.316406 19.139 0.316406 18.9487C0.316467 18.7585 0.354568 18.5697 0.427734 18.394C0.500951 18.2185 0.608122 18.0592 0.743164 17.9253V17.9243L8.02051 10.6646L8.19824 10.4878L8.02051 10.311L0.743164 3.05029H0.744141C0.472361 2.77851 0.319336 2.41024 0.319336 2.02588C0.31934 1.83557 0.35686 1.64701 0.429688 1.47119C0.502518 1.29541 0.609597 1.13601 0.744141 1.00146C1.01593 0.72969 1.3842 0.57666 1.76855 0.57666Z" fill="white" stroke="#1A4FE8" stroke-width="0.5"/>
</svg>
