<svg width="12" height="21" viewBox="0 0 12 21" fill="none" xmlns="http://www.w3.org/2000/svg">
<path d="M10.2314 0.57666C10.0411 0.576661 9.85259 0.614181 9.67676 0.687012C9.50097 0.75984 9.34158 0.866918 9.20703 1.00146L0.745117 9.4624L0.744141 9.46338C0.608966 9.59746 0.501929 9.75736 0.428711 9.93311C0.355532 10.1088 0.317383 10.2974 0.317383 10.4878C0.317415 10.6781 0.355517 10.8668 0.428711 11.0425C0.501882 11.218 0.609145 11.3773 0.744141 11.5112L9.20703 19.9741V19.9751C9.34111 20.1103 9.50101 20.2173 9.67676 20.2905C9.85251 20.3637 10.0411 20.4009 10.2314 20.4009C10.4218 20.4009 10.6104 20.3637 10.7861 20.2905C10.9619 20.2173 11.1218 20.1103 11.2559 19.9751L11.2568 19.9731L11.3525 19.8677C11.4432 19.758 11.5173 19.6352 11.5723 19.5034C11.6454 19.3277 11.6836 19.139 11.6836 18.9487C11.6835 18.7585 11.6454 18.5697 11.5723 18.394C11.499 18.2185 11.3919 18.0592 11.2568 17.9253V17.9243L3.97949 10.6646L3.80176 10.4878L3.97949 10.311L11.2568 3.05029H11.2559C11.5276 2.77851 11.6807 2.41024 11.6807 2.02588C11.6807 1.83557 11.6431 1.64701 11.5703 1.47119C11.4975 1.29541 11.3904 1.13601 11.2559 1.00146C10.9841 0.72969 10.6158 0.57666 10.2314 0.57666Z" fill="white" stroke="#1A4FE8" stroke-width="0.5"/>
</svg>
