<svg width="15" height="16" viewBox="0 0 15 16" fill="none" xmlns="http://www.w3.org/2000/svg">
<path d="M8.28405 3.51214C8.28405 4.11698 7.79374 4.6073 7.1889 4.6073C6.58407 4.6073 6.09375 4.11698 6.09375 3.51214C6.09375 2.90731 6.58407 2.41699 7.1889 2.41699C7.79374 2.41699 8.28405 2.90731 8.28405 3.51214Z" fill="white"/>
<path d="M8.28405 7.34518C8.28405 7.95001 7.79374 8.44033 7.1889 8.44033C6.58407 8.44033 6.09375 7.95001 6.09375 7.34518C6.09375 6.74034 6.58407 6.25003 7.1889 6.25003C7.79374 6.25003 8.28405 6.74034 8.28405 7.34518Z" fill="white"/>
<path d="M8.28405 11.1782C8.28405 11.783 7.79374 12.2734 7.1889 12.2734C6.58407 12.2734 6.09375 11.783 6.09375 11.1782C6.09375 10.5734 6.58407 10.0831 7.1889 10.0831C7.79374 10.0831 8.28405 10.5734 8.28405 11.1782Z" fill="white"/>
</svg>
