<svg width="33" height="32" viewBox="0 0 33 32" fill="none" xmlns="http://www.w3.org/2000/svg">
<rect x="0.808594" y="0.181641" width="31.2079" height="31.2079" fill="white"/>
<path fill-rule="evenodd" clip-rule="evenodd" d="M0.8077 17.1329H5.62663V7.23877H7.50377V17.1329H12.188V7.23877H14.0651V17.1329H18.7582V7.23877H20.6354V17.1329H25.3282H25.3283V7.23877H27.2055V17.1329H32.0156V18.9318H27.2055V20.2809C27.2055 22.5165 25.3145 24.3288 22.9819 24.3288C21.6548 24.3288 20.471 23.7422 19.6968 22.8249C18.9225 23.7422 17.7387 24.3288 16.4117 24.3288C15.0846 24.3288 13.9009 23.7422 13.1266 22.8249C12.3523 23.7422 11.1685 24.3288 9.84152 24.3288C7.50881 24.3288 5.61781 22.5165 5.61781 20.2809H5.62663V18.9318H0.8077V17.1329ZM20.6354 18.9318V20.2809C20.6354 21.5229 21.6859 22.5297 22.9819 22.5297C24.2777 22.5297 25.3283 21.5229 25.3283 20.2809V18.9318H25.3282H20.6354ZM14.0651 18.9318V20.2809C14.0651 21.5229 15.1157 22.5297 16.4117 22.5297C17.7075 22.5297 18.7582 21.5229 18.7582 20.2809V18.9318H14.0651ZM7.50377 18.9318V20.2809H7.49494C7.49494 21.5229 8.54562 22.5297 9.84152 22.5297C11.1373 22.5297 12.188 21.5229 12.188 20.2809V18.9318H7.50377Z" fill="#FF6600"/>
</svg>
