<svg width="27" height="27" viewBox="0 0 27 27" fill="none" xmlns="http://www.w3.org/2000/svg">
<g clip-path="url(#clip0_109_673)">
<rect x="0.904297" y="0.682129" width="25.73" height="25.73" rx="12.865" fill="#FF6600"/>
<path fill-rule="evenodd" clip-rule="evenodd" d="M0.904736 14.654H4.87781V6.53809H6.42545V14.654H10.2875V6.53809H11.8351V14.654H15.7044V6.53809H17.2521V14.654H21.1211H21.1212V6.53809H22.669V14.654H26.6348V16.1295H22.669V17.2361C22.669 19.0699 21.1099 20.5565 19.1867 20.5565C18.0926 20.5565 17.1166 20.0753 16.4782 19.3229C15.8398 20.0753 14.8638 20.5565 13.7698 20.5565C12.6757 20.5565 11.6997 20.0753 11.0613 19.3229C10.4229 20.0753 9.44691 20.5565 8.35286 20.5565C6.42961 20.5565 4.87053 19.0699 4.87053 17.2361H4.87781V16.1295H0.904736V14.654ZM17.2521 16.1295V17.2361C17.2521 18.2549 18.1182 19.0807 19.1867 19.0807C20.2551 19.0807 21.1212 18.2549 21.1212 17.2361V16.1295H21.1211H17.2521ZM11.8351 16.1295V17.2361C11.8351 18.2549 12.7013 19.0807 13.7698 19.0807C14.8381 19.0807 15.7044 18.2549 15.7044 17.2361V16.1295H11.8351ZM6.42545 16.1295V17.2361H6.41817C6.41817 18.2549 7.28443 19.0807 8.35286 19.0807C9.4212 19.0807 10.2875 18.2549 10.2875 17.2361V16.1295H6.42545Z" fill="white"/>
</g>
<defs>
<clipPath id="clip0_109_673">
<rect x="0.904297" y="0.682129" width="25.73" height="25.73" rx="12.865" fill="white"/>
</clipPath>
</defs>
</svg>
