<svg width="30" height="36" viewBox="0 0 30 36" fill="none" xmlns="http://www.w3.org/2000/svg">
<path d="M15.3184 8.15039C17.0025 8.15039 18.6177 8.81891 19.8086 10.0098C20.9994 11.2006 21.668 12.8159 21.668 14.5C21.668 16.1841 20.9994 17.7994 19.8086 18.9902C18.6177 20.1811 17.0025 20.8496 15.3184 20.8496C13.6342 20.8496 12.019 20.1811 10.8281 18.9902C9.63727 17.7994 8.96875 16.1841 8.96875 14.5C8.96875 12.8159 9.63727 11.2006 10.8281 10.0098C12.019 8.81891 13.6342 8.15039 15.3184 8.15039ZM15.3184 10.4473C14.2439 10.4469 13.2131 10.8733 12.4531 11.6328C11.6932 12.3923 11.2661 13.4227 11.2656 14.4971C11.2653 15.5715 11.6918 16.6023 12.4512 17.3623C13.2106 18.1223 14.2411 18.5494 15.3154 18.5498C16.3899 18.5502 17.4206 18.1238 18.1807 17.3643C18.9407 16.6047 19.3678 15.5745 19.3682 14.5C19.3685 13.4255 18.9421 12.3948 18.1826 11.6348C17.4231 10.8748 16.3928 10.4476 15.3184 10.4473Z" fill="#1A4FE8" stroke="#D2DDEA" stroke-width="0.3"/>
<path d="M15.3184 0.150391C23.2357 0.150391 29.668 6.54021 29.668 14.4004C29.6678 19.7489 26.6728 25.1157 23.3584 29.1553C21.7033 31.1725 19.9736 32.8521 18.5098 34.0264C17.7776 34.6137 17.114 35.0726 16.5615 35.3838C16.0015 35.6992 15.5783 35.8496 15.3184 35.8496C15.0584 35.8496 14.6352 35.6992 14.0752 35.3838C13.5228 35.0726 12.8591 34.6137 12.127 34.0264C10.6631 32.8521 8.93346 31.1725 7.27832 29.1553C3.96392 25.1157 0.968896 19.7489 0.96875 14.4004C0.96875 6.54021 7.40106 0.150391 15.3184 0.150391ZM15.3115 2.25C8.55966 2.25 3.07812 7.69257 3.07812 14.4004C3.07827 19.0355 5.71366 23.9406 8.91211 27.8389V27.8398C10.2917 29.505 11.706 30.9201 12.9375 31.9697L13.4531 32.3975C13.9762 32.8255 14.5312 33.2137 15.1133 33.5586L15.1191 33.5615L15.2451 33.6289L15.3184 33.668L15.3906 33.627C16.0192 33.2675 16.6155 32.8552 17.1748 32.3965L17.1758 32.3975C18.514 31.3342 20.1481 29.7519 21.7178 27.8389C24.9161 23.9406 27.5516 19.0354 27.5518 14.4004V14.25H27.543C27.462 7.61138 22.0128 2.25022 15.3115 2.25Z" fill="#1A4FE8" stroke="white" stroke-width="0.3"/>
</svg>
