<svg width="230" height="74" viewBox="0 0 230 74" fill="none" xmlns="http://www.w3.org/2000/svg">
<path d="M0 42.5244C0.307082 50.1507 5.68125 54.9105 13.9731 54.9105C21.8554 54.9105 27.3319 50.7137 27.3319 43.548C27.3319 35.6656 20.6782 33.8743 15.6621 32.6459C11.5675 31.6733 8.44525 30.9056 8.44525 28.2442C8.44525 26.1456 10.3903 24.7123 13.4099 24.7123C16.8395 24.7123 18.8867 26.5038 19.1426 29.3187H26.5642C26.3595 22.5115 21.1386 18.0586 13.5634 18.0586C6.14187 18.0586 1.02338 22.4092 1.02338 28.5001C1.02338 36.8939 7.72869 38.5321 13.154 39.8116C16.8395 40.6816 19.9103 41.5006 19.9103 44.2645C19.9103 46.8235 17.2487 48.2568 14.0243 48.2568C10.0318 48.2568 7.72869 46.1584 7.42138 42.5244H0ZM41.2539 54.3989V18.5704H33.5764V54.3989H41.2539ZM116.597 18.5704V20.1058C116.597 30.8543 120.128 40.6305 123.302 48.82L125.452 54.3989H135.381L137.531 48.82C138.401 46.5679 139.425 43.8551 140.397 40.835L145.413 54.3989H155.497L157.646 48.82C160.307 41.9612 164.351 30.8543 164.351 20.1058V18.5704H156.93V20.1058C156.93 27.681 155.292 34.6934 152.733 41.5517L150.634 47.233H150.429L143.52 28.4489C143.98 25.6849 144.236 22.8695 144.236 20.1058V18.5704H136.968V20.1058C136.968 27.681 135.33 34.6934 132.77 41.5517L130.672 47.233H130.467L128.369 41.5517C125.81 34.6934 124.275 27.681 124.275 20.1058V18.5704H116.597ZM170.596 54.3989H194.959V47.6426H178.273V39.5043H191.069V32.748H178.273V25.3264H194.345V18.5704H170.596V54.3989ZM216.712 54.3989C224.288 54.3989 229.508 50.5602 229.508 43.9062C229.508 39.0437 226.744 36.5871 222.957 35.3584C226.079 34.0789 227.666 31.2126 227.666 27.7833C227.666 21.8462 222.803 18.5704 216.302 18.5704H201.971V54.3989H216.712ZM215.484 39.402C219.732 39.402 221.626 40.6816 221.626 43.5992C221.626 46.5167 219.732 47.8474 215.484 47.8474H209.649V39.402H215.484ZM214.972 25.1217C218.452 25.1217 219.937 26.555 219.937 28.9605C219.937 31.3662 218.402 32.8504 214.921 32.8504H209.649V25.1217H214.972Z" fill="#20242F"/>
<rect x="56" y="12" width="48" height="48" rx="10" fill="#1A4FE8"/>
<path d="M67.5736 26.1429C67.4675 25.7163 67.4851 25.268 67.6243 24.8481C67.7636 24.4282 68.0191 24.0533 68.3622 23.7654C68.7052 23.4775 69.1222 23.2881 69.5666 23.2182C70.0109 23.1484 70.465 23.201 70.8779 23.37L93.108 32.4795C95.2425 33.3534 94.9825 36.4032 92.7257 36.9645L83.4471 39.2721C83.0868 39.3614 82.7514 39.5305 82.4668 39.7662C82.1822 40.0019 81.956 40.2979 81.8056 40.6314L77.845 49.4573C76.9121 51.538 73.8282 51.3026 73.2821 49.1068L67.5736 26.1429Z" fill="#517DA2"/>
</svg>
