<svg width="26" height="27" viewBox="0 0 26 27" fill="none" xmlns="http://www.w3.org/2000/svg">
<path d="M13.8722 26.7528C11.6989 26.7528 9.7777 26.4545 8.10866 25.858C6.43963 25.2685 5.03693 24.3984 3.90057 23.2479C2.7642 22.0973 1.90483 20.6875 1.32244 19.0185C0.740057 17.3494 0.448864 15.4389 0.448864 13.2869C0.448864 11.206 0.743608 9.34517 1.3331 7.70454C1.92969 6.06392 2.79261 4.67187 3.92188 3.52841C5.05824 2.37784 6.43608 1.50071 8.0554 0.897017C9.68182 0.293323 11.5213 -0.0085237 13.5739 -0.0085237C15.5696 -0.0085237 17.3168 0.318181 18.8153 0.971589C20.321 1.6179 21.5781 2.49503 22.5866 3.60298C23.6023 4.70383 24.3622 5.94318 24.8665 7.32102C25.3778 8.69886 25.6335 10.1193 25.6335 11.5824C25.6335 12.6122 25.5838 13.6562 25.4844 14.7145C25.3849 15.7727 25.1754 16.7457 24.8558 17.6335C24.5362 18.5142 24.0426 19.2244 23.375 19.7642C22.7145 20.304 21.8196 20.5739 20.6903 20.5739C20.1932 20.5739 19.6463 20.4957 19.0497 20.3395C18.4531 20.1832 17.924 19.924 17.4624 19.5618C17.0007 19.1996 16.7273 18.7131 16.642 18.1023H16.5142C16.3438 18.5142 16.081 18.9048 15.7259 19.2741C15.3778 19.6435 14.9197 19.9382 14.3516 20.1584C13.7905 20.3786 13.1051 20.4744 12.2955 20.446C11.3722 20.4105 10.5589 20.2045 9.85582 19.8281C9.1527 19.4446 8.56321 18.9261 8.08736 18.2727C7.61861 17.6122 7.26349 16.8487 7.02202 15.9822C6.78764 15.1087 6.67045 14.1676 6.67045 13.1591C6.67045 12.2003 6.8125 11.3232 7.09659 10.5277C7.38068 9.73224 7.77486 9.03622 8.27912 8.43963C8.79048 7.84304 9.38707 7.36719 10.0689 7.01207C10.7578 6.64986 11.5 6.42614 12.2955 6.34091C13.0057 6.26989 13.652 6.30185 14.2344 6.43679C14.8168 6.56463 15.2962 6.75994 15.6726 7.02273C16.049 7.27841 16.2869 7.5625 16.3864 7.875H16.5142V6.68182H18.7727V16.3125C18.7727 16.9091 18.9396 17.4347 19.2734 17.8892C19.6072 18.3437 20.0938 18.571 20.733 18.571C21.4574 18.571 22.0114 18.3224 22.3949 17.8253C22.7855 17.3281 23.0518 16.5611 23.1939 15.5241C23.343 14.4872 23.4176 13.1591 23.4176 11.5398C23.4176 10.5881 23.2862 9.65057 23.0234 8.72727C22.7678 7.79687 22.3771 6.92685 21.8516 6.11719C21.3331 5.30753 20.6761 4.59375 19.8807 3.97585C19.0852 3.35795 18.1513 2.875 17.0788 2.52699C16.0135 2.17187 14.8026 1.99432 13.446 1.99432C11.777 1.99432 10.282 2.25355 8.96094 2.77202C7.64702 3.28338 6.52841 4.03267 5.60511 5.01989C4.68892 6 3.98935 7.19318 3.50639 8.59943C3.03054 9.99858 2.79261 11.5895 2.79261 13.3722C2.79261 15.1832 3.03054 16.7919 3.50639 18.1982C3.98935 19.6044 4.69957 20.7905 5.63707 21.7564C6.58168 22.7223 7.75 23.4538 9.14205 23.951C10.5341 24.4553 12.1392 24.7074 13.9574 24.7074C14.7386 24.7074 15.5092 24.6328 16.2692 24.4837C17.0291 24.3345 17.7003 24.1712 18.2827 23.9936C18.8651 23.8161 19.2841 23.6847 19.5398 23.5994L20.1364 25.5597C19.696 25.7443 19.1207 25.929 18.4105 26.1136C17.7074 26.2983 16.9545 26.451 16.152 26.5717C15.3565 26.6925 14.5966 26.7528 13.8722 26.7528ZM12.6364 18.2727C13.5881 18.2727 14.3587 18.081 14.9482 17.6974C15.5376 17.3139 15.9673 16.7351 16.2372 15.9609C16.5071 15.1868 16.642 14.2102 16.642 13.0312C16.642 11.8381 16.4929 10.9077 16.1946 10.2401C15.8963 9.57244 15.456 9.10369 14.8736 8.83381C14.2912 8.56392 13.5739 8.42898 12.7216 8.42898C11.9119 8.42898 11.2195 8.64205 10.6442 9.06818C10.076 9.48722 9.6392 10.0483 9.33381 10.7514C9.03551 11.4474 8.88636 12.2074 8.88636 13.0312C8.88636 13.9403 9.0071 14.7962 9.24858 15.5987C9.49006 16.3942 9.88423 17.0405 10.4311 17.5376C10.978 18.0277 11.7131 18.2727 12.6364 18.2727Z" fill="#1A4FE8"/>
</svg>
