<svg width="37" height="44" viewBox="0 0 37 44" fill="none" xmlns="http://www.w3.org/2000/svg">
<path d="M18.0137 1.64941C18.0148 1.64941 18.0185 1.64907 18.0312 1.64941C18.041 1.64968 18.0634 1.65014 18.0859 1.65039H18.1035C18.128 1.65018 18.1521 1.64969 18.1621 1.64941H18.1787C21.1936 1.64942 22.8508 2.71114 23.7559 3.85449C24.6964 5.04266 24.9048 6.41767 24.8398 7.10645C24.7738 7.79875 24.6556 8.6064 24.5518 9.24902C24.5002 9.56831 24.4524 9.8432 24.418 10.0381C24.4008 10.1355 24.3865 10.213 24.377 10.2656C24.3722 10.2918 24.3687 10.3118 24.3662 10.3252C24.365 10.3317 24.3639 10.3366 24.3633 10.3398C24.363 10.3414 24.3634 10.343 24.3633 10.3438L24.3623 10.3447L24.2334 11.0371L24.8164 11.3027C24.826 11.3113 24.8438 11.3275 24.8643 11.3555C24.9147 11.4248 25.0315 11.6249 25.0361 12.0654C24.9786 12.7817 24.8701 13.1618 24.7783 13.3613C24.7017 13.5279 24.6408 13.5655 24.5957 13.5928C24.548 13.6216 24.5029 13.642 24.3916 13.6953C24.2982 13.74 24.1432 13.8154 23.9893 13.9287C23.6178 14.2022 23.3862 14.594 23.2861 15.1279C23.1092 16.0727 22.5936 16.9226 21.9473 17.6172C21.2987 18.3141 20.5638 18.8052 20.0391 19.043C19.4129 19.3268 18.7731 19.4687 18.0957 19.4824C17.4186 19.4686 16.7792 19.3266 16.1533 19.043C15.6284 18.8051 14.8937 18.3132 14.2451 17.6162C13.5989 16.9216 13.0832 16.0726 12.9062 15.1279C12.8062 14.5942 12.5753 14.2022 12.2041 13.9287C12.0501 13.8153 11.8942 13.74 11.8008 13.6953C11.6895 13.6421 11.6444 13.6216 11.5967 13.5928C11.5516 13.5655 11.4907 13.5278 11.4141 13.3613C11.3223 13.1619 11.2128 12.7818 11.1553 12.0654C11.1599 11.6249 11.2777 11.4248 11.3281 11.3555C11.3481 11.328 11.3653 11.3115 11.375 11.3027L11.959 11.0371L11.8301 10.3447L11.8291 10.3438C11.829 10.343 11.8294 10.3414 11.8291 10.3398C11.8285 10.3366 11.8274 10.3317 11.8262 10.3252C11.8237 10.3118 11.8202 10.2918 11.8154 10.2656C11.8058 10.213 11.7916 10.1355 11.7744 10.0381C11.74 9.84321 11.6922 9.56831 11.6406 9.24902C11.5628 8.76714 11.4771 8.19259 11.4111 7.64355L11.3525 7.10742C11.2873 6.41896 11.4956 5.04322 12.4365 3.85449C13.3416 2.71113 14.9988 1.64943 18.0137 1.64941ZM11.3232 11.3271L11.3213 11.3281H11.3203L11.3242 11.3252L11.3232 11.3271ZM24.8721 11.3281H24.8711L24.8691 11.3271L24.8672 11.3252L24.8721 11.3281Z" stroke="#1A4FE8" stroke-width="1.8"/>
<path d="M12.5557 23.7734C12.8277 24.2343 13.1546 24.8336 13.5303 25.5117C13.9201 26.2153 14.3554 26.9875 14.8047 27.7061C15.2503 28.4187 15.731 29.1133 16.2178 29.6455C16.4616 29.9121 16.7275 30.1608 17.0117 30.3525C17.2915 30.5412 17.6423 30.7103 18.0439 30.7383L18.1064 30.7422L18.1689 30.7383C18.5704 30.7102 18.9205 30.5411 19.2002 30.3525C19.4844 30.1609 19.7504 29.912 19.9941 29.6455C20.4809 29.1133 20.9616 28.4187 21.4072 27.7061C21.8566 26.9875 22.2918 26.2153 22.6816 25.5117C23.057 24.8341 23.3834 24.2352 23.6553 23.7744C23.77 23.8393 23.9422 23.9365 24.167 24.0645C24.4801 24.2427 24.8756 24.4663 25.3037 24.6992C26.1447 25.1567 27.165 25.6809 27.9414 25.9609C30.2225 26.7835 31.5945 27.6446 32.5039 28.3916C33.426 29.1491 33.8038 29.6977 34.3779 30.2881C35.6249 32.4267 35.4592 34.5807 34.2871 37.1445C33.0661 39.815 30.7808 41.1269 27.8662 41.7695C24.9107 42.4211 21.4706 42.3496 18.1055 42.3496C14.7417 42.3496 11.2369 42.4212 8.2168 41.7686C5.23086 41.1232 2.89201 39.8069 1.6748 37.1445C0.518416 34.6151 0.719981 31.9447 1.85449 30.2461C2.33184 29.5315 2.7986 28.895 3.68066 28.2256C4.46781 27.6283 5.61715 26.9824 7.44434 26.2705L8.27051 25.9609C9.04684 25.6809 10.0672 25.1567 10.9082 24.6992C11.3363 24.4663 11.7318 24.2427 12.0449 24.0645C12.2694 23.9367 12.4409 23.8383 12.5557 23.7734Z" stroke="#1A4FE8" stroke-width="1.8"/>
</svg>
