<svg width="40" height="40" viewBox="0 0 40 40" fill="none" xmlns="http://www.w3.org/2000/svg">
<path d="M18 28C17.7348 28 17.4804 28.1054 17.2929 28.2929C17.1054 28.4804 17 28.7348 17 29C17 29.2652 17.1054 29.5196 17.2929 29.7071C17.4804 29.8946 17.7348 30 18 30H22C22.2652 30 22.5196 29.8946 22.7071 29.7071C22.8946 29.5196 23 29.2652 23 29C23 28.7348 22.8946 28.4804 22.7071 28.2929C22.5196 28.1054 22.2652 28 22 28H18ZM14 4C12.9391 4 11.9217 4.42143 11.1716 5.17157C10.4214 5.92172 10 6.93913 10 8V32C10 33.0609 10.4214 34.0783 11.1716 34.8284C11.9217 35.5786 12.9391 36 14 36H26C27.0609 36 28.0783 35.5786 28.8284 34.8284C29.5786 34.0783 30 33.0609 30 32V8C30 6.93913 29.5786 5.92172 28.8284 5.17157C28.0783 4.42143 27.0609 4 26 4H14ZM12 8C12 7.46957 12.2107 6.96086 12.5858 6.58579C12.9609 6.21071 13.4696 6 14 6H26C26.5304 6 27.0391 6.21071 27.4142 6.58579C27.7893 6.96086 28 7.46957 28 8V32C28 32.5304 27.7893 33.0391 27.4142 33.4142C27.0391 33.7893 26.5304 34 26 34H14C13.4696 34 12.9609 33.7893 12.5858 33.4142C12.2107 33.0391 12 32.5304 12 32V8Z" fill="#1A4FE8"/>
</svg>
