<svg width="27" height="27" viewBox="0 0 27 27" fill="none" xmlns="http://www.w3.org/2000/svg">
<g clip-path="url(#clip0_109_2003)">
<rect x="1" y="1" width="25.73" height="25.73" rx="12.865" fill="#E40038"/>
<path fill-rule="evenodd" clip-rule="evenodd" d="M12.889 20.5109C12.4458 19.9431 12.6425 18.5635 12.889 18.1484C13.3317 18.3201 13.1845 19.2526 13.0905 20.0233C12.9778 20.946 13.1462 20.1652 12.889 20.5109ZM19.1617 15.512C18.4722 15.2409 17.9597 15.5001 17.7157 15.0539C18.6246 14.481 20.2347 15.2332 20.3581 16.1239C19.817 16.0592 19.7783 15.7546 19.1617 15.512ZM13.3674 10.6784C15.1897 10.1067 16.8018 11.6766 17.0075 13.1721C17.5946 17.4402 10.7945 18.4525 10.6912 14.4008C10.6435 12.5306 11.9421 11.1255 13.3674 10.6784ZM8.40617 13.7197C9.81052 13.6721 9.52884 14.1742 9.57989 14.3059C9.0865 14.2719 8.72006 14.1581 8.23734 14.1991C7.58478 14.2544 7.76382 14.4548 7.26272 14.2536C7.4796 13.8163 7.83429 13.7391 8.40617 13.7197ZM9.8769 7.89291C10.603 8.00226 11.3773 9.34091 11.1283 9.90091C10.6345 9.71334 10.7135 9.41741 10.4037 8.88931C10.1301 8.42297 9.9255 8.41203 9.8769 7.89291ZM16.5706 9.91207C16.1087 9.08641 17.2589 7.80081 17.9386 7.76587C17.9002 8.28054 17.5174 8.4236 17.2453 8.83691C16.8849 9.38429 17.0497 9.64927 16.5706 9.91207ZM8.33367 11.2739C6.02335 11.2828 4.61451 12.6509 5.09315 15.151C5.54729 17.5229 7.15686 17.87 9.66692 17.6621C9.59972 18.5557 7.79549 22.1383 12.2497 22.9176C15.2374 23.4403 16.9138 21.4125 16.8582 18.6748C17.2144 18.7665 20.7005 21.2402 22.6185 16.9458C23.8726 14.138 21.9841 12.8437 19.8725 11.9216L19.4646 11.6925C23.6462 6.87184 18.0679 4.35248 15.9993 5.35609C14.661 6.00539 14.6787 6.9055 13.8494 7.8176C13.0445 6.85573 13.1459 6.27132 12.0392 5.50061C9.86352 3.98541 7.35737 6.22726 7.24947 8.00676C7.15473 9.56914 7.97122 10.1621 8.33367 11.2739Z" fill="#FDFDFD"/>
<path fill-rule="evenodd" clip-rule="evenodd" d="M13.3669 10.6785C11.9416 11.1256 10.643 12.5306 10.6907 14.4008C10.794 18.4525 17.5941 17.4403 17.0071 13.1722C16.8013 11.6767 15.1892 10.1068 13.3669 10.6785Z" fill="#D23A3A"/>
<path fill-rule="evenodd" clip-rule="evenodd" d="M17.7168 15.0539C17.9609 15.5001 18.4734 15.2409 19.1628 15.5121C19.7794 15.7546 19.8181 16.0593 20.3592 16.1239C20.2358 15.2332 18.6257 14.481 17.7168 15.0539Z" fill="#D23A3A"/>
<path fill-rule="evenodd" clip-rule="evenodd" d="M16.5713 9.91183C17.0504 9.64903 16.8857 9.38405 17.246 8.83666C17.5181 8.42336 17.9009 8.28029 17.9394 7.76562C17.2596 7.80056 16.1094 9.08617 16.5713 9.91183Z" fill="#D23A3A"/>
<path fill-rule="evenodd" clip-rule="evenodd" d="M7.26172 14.2534C7.76282 14.4547 7.58378 14.2542 8.23634 14.1989C8.71906 14.1579 9.0855 14.2718 9.57889 14.3057C9.52784 14.174 9.80952 13.6719 8.40517 13.7195C7.83329 13.7389 7.4786 13.8161 7.26172 14.2534Z" fill="#D23A3A"/>
<path fill-rule="evenodd" clip-rule="evenodd" d="M12.8887 20.5109C13.1459 20.1652 12.9775 20.946 13.0901 20.0234C13.1842 19.2526 13.3313 18.3201 12.8887 18.1484C12.6422 18.5636 12.4455 19.9431 12.8887 20.5109Z" fill="#D23A3A"/>
<path fill-rule="evenodd" clip-rule="evenodd" d="M11.1283 9.90106C11.3774 9.34107 10.6031 8.00242 9.87695 7.89307C9.92555 8.41218 10.1302 8.42312 10.4037 8.88946C10.7135 9.41756 10.6346 9.71349 11.1283 9.90106Z" fill="#D23A3A"/>
</g>
<defs>
<clipPath id="clip0_109_2003">
<rect x="0.904297" y="0.682129" width="25.73" height="25.73" rx="12.865" fill="white"/>
</clipPath>
</defs>
</svg>
