<svg width="17" height="17" viewBox="0 0 17 17" fill="none" xmlns="http://www.w3.org/2000/svg">
<path d="M5.70311 10.2702C5.94267 10.7493 6.81195 11.7075 8.37254 11.7075C9.93313 11.7075 10.8024 10.7493 11.042 10.2702M14.8408 8.62742C14.8408 12.1997 11.9449 15.0957 8.37254 15.0957C4.80023 15.0957 1.9043 12.1997 1.9043 8.62742C1.9043 5.05511 4.80023 2.15918 8.37254 2.15918C11.9449 2.15918 14.8408 5.05511 14.8408 8.62742ZM10.8366 7.49805C10.8366 7.78156 10.6987 8.0114 10.5286 8.0114C10.3585 8.0114 10.2206 7.78156 10.2206 7.49805C10.2206 7.21453 10.3585 6.9847 10.5286 6.9847C10.6987 6.9847 10.8366 7.21453 10.8366 7.49805ZM6.52447 7.49805C6.52447 7.78156 6.38657 8.0114 6.21646 8.0114C6.04635 8.0114 5.90845 7.78156 5.90845 7.49805C5.90845 7.21453 6.04635 6.9847 6.21646 6.9847C6.38657 6.9847 6.52447 7.21453 6.52447 7.49805Z" stroke="#8E959B" stroke-width="0.924035" stroke-linecap="round"/>
</svg>
