<svg width="40" height="40" viewBox="0 0 40 40" fill="none" xmlns="http://www.w3.org/2000/svg">
<path d="M19.9738 25.6805L25.3771 31.8238C27.3771 34.0988 28.3788 35.2371 29.4271 34.9588C30.4738 34.6821 30.8338 33.1855 31.5521 30.1905L35.5354 13.5771C36.6438 8.96381 37.1971 6.65881 35.9671 5.52047C34.7371 4.38214 32.6054 5.22881 28.3421 6.92047L8.56542 14.7755C5.15542 16.1305 3.45042 16.8071 3.34209 17.9705C3.32933 18.089 3.32933 18.2086 3.34209 18.3271C3.44709 19.4921 5.14875 20.1738 8.55542 21.5388C10.0971 22.1571 10.8688 22.4671 11.4221 23.0588C11.4843 23.1255 11.5443 23.1944 11.6021 23.2655C12.1121 23.8988 12.3288 24.7321 12.7638 26.3921L13.5788 29.5038C14.0004 31.1205 14.2121 31.9305 14.7671 32.0405C15.3221 32.1505 15.8038 31.4805 16.7688 30.1388L19.9738 25.6805ZM19.9738 25.6805L19.4454 25.1305C18.8421 24.5005 18.5404 24.1871 18.5404 23.7971C18.5404 23.4071 18.8404 23.0921 19.4454 22.4638L25.4004 16.2571" stroke="#1A4FE8" stroke-width="1.8" stroke-linecap="round" stroke-linejoin="round"/>
</svg>
