<svg width="14" height="8" viewBox="0 0 14 8" fill="none" xmlns="http://www.w3.org/2000/svg">
<path d="M7.66274 7.6625L13.3676 1.95767C13.474 1.85129 13.5583 1.72499 13.6159 1.586C13.6735 1.447 13.7031 1.29803 13.7031 1.14758C13.7031 0.843741 13.5824 0.552344 13.3676 0.337496C13.2612 0.231114 13.1349 0.146727 12.9959 0.0891533C12.8569 0.0315797 12.7079 0.00194772 12.5575 0.00194772C12.2536 0.00194772 11.9623 0.122648 11.7474 0.337496L6.85266 5.24365L1.95791 0.337496C1.85184 0.230555 1.72565 0.145674 1.58661 0.0877485C1.44757 0.0298231 1.29844 0 1.14782 0C0.9972 0 0.84807 0.0298231 0.709032 0.0877485C0.569995 0.145674 0.443804 0.230555 0.337736 0.337496C0.230795 0.443564 0.145911 0.569756 0.087986 0.708793C0.0300608 0.847831 0.000238419 0.996962 0.000238419 1.14758C0.000238419 1.2982 0.0300608 1.44733 0.087986 1.58637C0.145911 1.72541 0.230795 1.8516 0.337736 1.95767L6.04257 7.6625C6.14864 7.76944 6.27483 7.85433 6.41387 7.91225C6.5529 7.97018 6.70203 8 6.85266 8C7.00328 8 7.15241 7.97018 7.29144 7.91225C7.43048 7.85433 7.55667 7.76944 7.66274 7.6625Z" fill="#8BA8D1"/>
</svg>
