<svg width="215" height="48" viewBox="0 0 215 48" fill="none" xmlns="http://www.w3.org/2000/svg">
<mask id="mask0_109_3137" style="mask-type:luminance" maskUnits="userSpaceOnUse" x="0" y="0" width="215" height="48">
<path d="M214.938 0H0V48H214.938V0Z" fill="white"/>
</mask>
<g mask="url(#mask0_109_3137)">
<path d="M69.2387 25.0623L63.2917 12.5312H57.7695L66.4776 30.7968L60.1058 43.3276H65.8403L81.1324 12.5312H75.398L69.2387 25.0623Z" fill="black"/>
<path d="M113.201 0.637207H108.316V34.4071H113.201V0.637207Z" fill="black"/>
<path d="M92.6 16.5665C93.8768 16.592 95.1235 16.9587 96.2107 17.6284C97.2689 18.3317 98.1429 19.2785 98.7595 20.3895H103.644C103.014 17.6652 101.335 15.2993 98.9718 13.8054C96.6294 12.3318 93.8709 11.6609 91.1133 11.8939C88.3808 12.2457 85.8798 13.6099 84.1045 15.7169C82.2739 17.7545 81.2869 20.412 81.3436 23.1504C81.3034 24.66 81.586 26.1607 82.172 27.5525C82.7581 28.9443 83.6341 30.1951 84.7418 31.2214C85.8021 32.2573 87.0211 33.1176 88.3522 33.77C89.7589 34.3765 91.2816 34.6667 92.8125 34.6196C95.341 34.6257 97.8024 33.8053 99.8214 32.2833C101.826 30.6565 103.243 28.4189 103.857 25.9115H98.9718C98.5036 27.0552 97.6859 28.0216 96.6355 28.6726C95.5965 29.3145 94.4421 29.7474 93.2373 29.947C92.0061 29.9422 90.785 29.7267 89.6266 29.3097C88.5656 28.7143 87.6285 27.9212 86.8656 26.9736C86.196 25.9648 85.8277 24.7859 85.8037 23.5752C85.7557 22.3846 86.0504 21.2051 86.6533 20.1771C87.2773 19.1286 88.1535 18.2525 89.2018 17.6284C90.2659 17.0834 91.4151 16.7243 92.6 16.5665Z" fill="black"/>
<path d="M123.397 12.5312H118.512V34.4074H123.397V12.5312Z" fill="black"/>
<path d="M120.849 3.82293C120.481 3.76754 120.105 3.84268 119.787 4.03531C119.362 4.24771 119.15 4.46009 118.725 4.67249C118.466 4.99649 118.252 5.35363 118.087 5.73445C117.934 6.06665 117.861 6.43058 117.875 6.79638C117.842 7.23209 117.914 7.66941 118.087 8.07072C118.3 8.49549 118.512 8.70789 118.725 9.13267C119.049 9.39144 119.406 9.60573 119.787 9.76983C120.613 10.053 121.509 10.053 122.335 9.76983C122.76 9.55745 122.973 9.34505 123.397 9.13267C123.656 8.80867 123.87 8.45153 124.034 8.07072C124.207 7.66941 124.28 7.23209 124.247 6.79638C124.302 6.42846 124.227 6.05275 124.034 5.73445C123.776 5.41045 123.561 5.05328 123.397 4.67249C123.073 4.4137 122.716 4.19943 122.335 4.03531C121.856 3.87678 121.353 3.80487 120.849 3.82293Z" fill="black"/>
<path d="M183.927 5.52197H179.255V29.7344C179.243 30.3791 179.362 31.0195 179.603 31.6173C179.845 32.2151 180.204 32.7582 180.66 33.2142C181.116 33.6702 181.659 34.0295 182.257 34.2708C182.855 34.5124 183.495 34.6308 184.14 34.6193H190.936V29.9467H184.777C184.565 29.9467 184.565 29.7344 184.352 29.7344C184.14 29.7344 184.14 29.5219 184.14 29.3096V17.6282H191.149V12.9556H184.14V5.52197H183.927Z" fill="black"/>
<path d="M132.743 21.0261C133.211 19.7131 134.075 18.5783 135.217 17.779C136.359 16.9798 137.721 16.5558 139.115 16.566C140.463 16.5616 141.786 16.9291 142.938 17.6279C144.01 18.4907 144.88 19.5782 145.487 20.8137H132.743V21.0261ZM139.327 12.1058C137.805 12.0646 136.289 12.3249 134.868 12.8717C133.446 13.4184 132.147 14.2409 131.044 15.2916C129.107 17.5323 128.05 20.4006 128.071 23.3624C128.029 24.8849 128.29 26.4006 128.836 27.822C129.383 29.2437 130.206 30.543 131.257 31.6457C133.399 33.7897 136.296 35.0094 139.327 35.0438C142.429 35.0515 145.408 33.8294 147.611 31.6457C148.509 30.7236 149.229 29.6434 149.734 28.4598L144.212 28.6721C143.594 29.2854 142.876 29.7883 142.088 30.159C141.286 30.5048 140.411 30.6505 139.54 30.5838C138.639 30.6082 137.742 30.4515 136.903 30.1232C136.064 29.7948 135.3 29.3015 134.655 28.6721C133.814 27.8652 133.224 26.8328 132.956 25.6987H150.796V25.2739C150.796 24.8491 151.009 24.212 151.009 23.5749C150.975 20.5066 149.727 17.5768 147.537 15.4271C145.348 13.2774 142.396 12.0831 139.327 12.1058Z" fill="black"/>
<path d="M165.238 12.1061C163.285 12.0183 161.377 12.7053 159.928 14.0176V12.5309H155.256V34.4069H159.928V21.8761C159.893 20.5298 160.383 19.2226 161.295 18.2315C162.207 17.2403 163.469 16.6431 164.813 16.5663C165.502 16.5627 166.184 16.6992 166.818 16.9675C167.452 17.2358 168.025 17.6303 168.502 18.127C168.979 18.6237 169.35 19.2122 169.592 19.8567C169.834 20.5012 169.942 21.1883 169.911 21.8761V34.4069H174.583V21.4513C174.609 20.2169 174.385 18.99 173.925 17.8444C173.465 16.6989 172.777 15.6583 171.904 14.7852C171.031 13.9122 169.991 13.2248 168.845 12.7644C167.699 12.304 166.473 12.0801 165.238 12.1061Z" fill="black"/>
<path d="M208.352 21.0268H201.556C201.307 21.0339 201.061 20.9794 200.838 20.8682C200.616 20.7571 200.425 20.5927 200.281 20.3897C200.095 20.2308 199.943 20.0361 199.833 19.8172C199.724 19.5983 199.659 19.3596 199.644 19.1153C199.637 18.8668 199.692 18.6205 199.803 18.3982C199.914 18.1758 200.078 17.9844 200.281 17.841C200.44 17.6548 200.635 17.5025 200.854 17.393C201.073 17.2836 201.311 17.2192 201.556 17.2038H213.874V12.5312H201.556C199.827 12.621 198.179 13.2949 196.883 14.4427C195.955 15.3637 195.323 16.5399 195.066 17.8215C194.809 19.1032 194.939 20.4323 195.441 21.6396C195.942 22.8469 196.791 23.8776 197.88 24.6006C198.969 25.3237 200.249 25.7061 201.556 25.6994H208.352C208.467 25.6854 208.584 25.6974 208.694 25.7341C208.805 25.7707 208.905 25.8316 208.989 25.9119C209.202 25.9119 209.414 26.1242 209.626 26.3365C209.839 26.549 209.839 26.7613 210.051 26.9738C210.264 27.1861 210.263 27.3986 210.263 27.6109C210.27 27.8594 210.216 28.1057 210.105 28.328C209.994 28.5504 209.829 28.7417 209.626 28.8853C209.467 29.0714 209.273 29.2237 209.054 29.3332C208.835 29.4427 208.596 29.5071 208.352 29.5224H195.609V34.1949H208.352C209.216 34.1576 210.071 34.0149 210.901 33.7701C212.492 33.0292 213.77 31.7506 214.511 30.1597C214.857 29.357 215.003 28.4823 214.936 27.6109C214.899 26.7473 214.756 25.8914 214.511 25.0623C214.141 24.2746 213.638 23.5562 213.025 22.9383C212.368 22.3725 211.657 21.8746 210.901 21.4516C210.071 21.2068 209.216 21.0641 208.352 21.0268Z" fill="black"/>
<path d="M39.0783 0H8.70666C7.54473 0.0054482 6.39339 0.221321 5.30841 0.637167C4.23369 1.01597 3.28022 1.67607 2.54737 2.54867C1.72413 3.32524 1.07294 4.26585 0.635856 5.30974C0.201206 6.3893 -0.0153492 7.54427 -0.00131188 8.70796V39.2919C0.00413631 40.454 0.22001 41.6053 0.635856 42.6903C1.01466 43.7651 1.67476 44.7185 2.54737 45.4514C3.32392 46.2746 4.26452 46.9257 5.30841 47.3629C6.388 47.7975 7.54294 48.014 8.70666 48H39.2908C40.4526 47.9945 41.604 47.7788 42.689 47.3629C43.7638 46.9839 44.7172 46.3239 45.4501 45.4514C46.2733 44.6747 46.9244 43.7341 47.3616 42.6903C47.7962 41.6108 48.0126 40.4557 47.9987 39.2919V8.70796C47.9932 7.54604 47.7774 6.39471 47.3616 5.30974C46.9826 4.23502 46.3226 3.28154 45.4501 2.54867C44.6734 1.72544 43.7328 1.07425 42.689 0.637167C41.5307 0.220346 40.3095 0.00484512 39.0783 0Z" fill="#FFCB05"/>
<path d="M38.23 12.531H27.8229C27.7077 12.5171 27.5908 12.529 27.4806 12.5657C27.3704 12.6025 27.2696 12.6631 27.1858 12.7434C26.9733 12.9558 26.761 12.9558 26.5485 13.1682L15.0796 31.0089C14.9417 31.1926 14.8672 31.4163 14.8672 31.646C14.8672 31.8758 14.9417 32.0994 15.0796 32.2833L20.1769 40.3541C20.1769 40.4104 20.1993 40.4645 20.2391 40.5042C20.279 40.5441 20.333 40.5664 20.3893 40.5664H20.8141L21.0265 40.3541L38.4425 13.1682C38.8673 12.9558 38.6548 12.531 38.23 12.531Z" fill="black"/>
<path d="M16.7777 22.9379L22.9369 13.3803C23.1494 12.9555 22.9369 12.7432 22.5121 12.7432H10.1936C9.76886 12.7432 9.55649 12.9555 9.76886 13.3803L15.9282 22.9379C15.9282 22.9942 15.9505 23.0481 15.9904 23.088C16.0302 23.128 16.0842 23.1502 16.1406 23.1502H16.3529C16.516 23.1347 16.6675 23.059 16.7777 22.9379Z" fill="black"/>
</g>
</svg>
