<svg width="99" height="48" viewBox="0 0 99 48" fill="none" xmlns="http://www.w3.org/2000/svg">
<g clip-path="url(#clip0_109_3068)">
<mask id="mask0_109_3068" style="mask-type:luminance" maskUnits="userSpaceOnUse" x="-417" y="-111" width="939" height="932">
<path d="M-416.023 820.967H521.374V-110.942H-416.023V820.967Z" fill="white"/>
</mask>
<g mask="url(#mask0_109_3068)">
<path d="M51.3708 41.6143C49.4575 41.4875 47.2513 41.154 45.5112 40.6531C45.1852 40.5591 43.8357 40.066 43.4924 39.9095C37.4344 37.1197 33.2142 31.0299 33.2142 23.9648C33.2142 14.2743 41.1445 6.381 50.8984 6.381C60.5656 6.381 68.4424 14.1397 68.5778 23.7206H74.9665C74.8311 10.6392 64.0899 0.037571 50.8984 0.037571C37.6281 0.037571 26.8271 10.7691 26.8271 23.9648C26.8271 33.0619 31.9733 40.974 39.5084 45.0161C40.8689 45.7316 42.8216 46.4689 43.4845 46.6709C45.6325 47.3065 48.2686 47.7292 50.6149 47.9061C51.4117 47.9656 54.1943 47.9969 55.0053 48H99V41.6738H55.0793C54.495 41.6738 51.9424 41.6519 51.3708 41.6143ZM55.0793 31.6812C54.6147 31.6812 52.1849 31.6655 51.7361 31.6279C50.9755 31.5637 49.8732 31.451 49.1646 31.2898C48.3646 31.0769 47.6135 30.7951 47.2749 30.6104C44.9018 29.3345 43.2846 26.839 43.2846 23.9648C43.2846 19.7833 46.6907 16.3924 50.8984 16.3924C55.0179 16.3924 58.3673 19.6502 58.5012 23.7206H64.6394C64.5103 16.2844 58.413 10.2916 50.8984 10.2916C43.3003 10.2916 37.1415 16.4128 37.1415 23.9648C37.1415 29.2906 40.2123 33.8901 44.6845 36.1429C45.3726 36.5436 46.6671 36.9632 47.0356 37.0587C48.2985 37.389 49.9945 37.6144 51.3708 37.7146C51.8794 37.7569 54.3706 37.7757 54.8966 37.7788V37.7882H98.9984V31.6812H55.0793ZM22.8902 47.9765H16.4591V6.39509H7.06108V-3.8147e-06H22.8902V47.9765ZM0 9.59029V15.7396H7.06108V47.9765H13.2403V9.59029H0Z" fill="#D91920"/>
<path d="M87.636 0.446649C85.3196 0.446649 83.3984 2.28299 83.3984 4.58741C83.3984 6.89184 85.3196 8.80176 87.636 8.80176C90.0233 8.80176 91.8705 6.89184 91.8705 4.58741C91.8705 2.28299 90.0233 0.446649 87.636 0.446649ZM87.636 8.12233C85.7227 8.12233 84.074 6.62727 84.074 4.58741C84.074 2.65088 85.7227 1.11825 87.636 1.11825C89.5478 1.11825 91.1886 2.65088 91.1886 4.58741C91.1886 6.62727 89.5478 8.12233 87.636 8.12233Z" fill="#D91920"/>
<path d="M89.249 5.72213C89.249 5.25718 89.1797 4.8251 88.6443 4.65446C89.3152 4.42276 89.3813 3.98598 89.3813 3.72141C89.3813 2.65217 88.405 2.51597 88.0034 2.51597H86.1562V6.65674H86.9263V4.95816H87.5326C88.405 4.95816 88.4774 5.35737 88.4774 5.72213C88.4774 6.42817 88.4774 6.56124 88.6443 6.65674H89.4159C89.249 6.48923 89.3152 6.35929 89.249 5.72213ZM87.8349 4.35388H86.9263V3.04981H87.7042C88.2428 3.04981 88.6081 3.21889 88.6081 3.72141C88.6081 3.98598 88.4774 4.35388 87.8349 4.35388Z" fill="#D91920"/>
</g>
</g>
<defs>
<clipPath id="clip0_109_3068">
<rect width="99" height="48" fill="white"/>
</clipPath>
</defs>
</svg>
