<svg width="223" height="180" viewBox="0 0 223 180" fill="none" xmlns="http://www.w3.org/2000/svg">
<g clip-path="url(#clip0_109_3051)">
<path d="M151.182 57.3149L126.558 65.3435L105.135 74.7842L99.1416 76.3641C97.6152 77.8138 96.0148 79.282 94.2838 80.7687C92.3853 82.4041 90.6172 83.891 89.2582 84.9687C87.7507 86.1582 85.5172 88.3883 84.3819 89.8004C82.6881 91.919 81.348 94.1676 80.771 95.8962C79.7472 99.0185 80.25 102.178 82.2229 105.096C84.7542 108.812 89.7983 112.603 95.6796 115.187C98.6764 116.506 103.72 118.197 107.517 119.145C113.827 120.743 126.037 122.472 132.756 122.732C134.114 122.788 135.938 122.788 136.013 122.732C136.162 122.639 137.204 120.651 138.414 118.179C142.546 109.76 145.524 101.862 147.143 95.1158C148.111 91.0274 148.874 85.5821 149.376 79.1336C149.507 77.3308 149.562 71.2909 149.451 69.2465C149.283 65.9014 148.985 63.1882 148.52 60.5306C148.446 60.1403 148.427 59.7871 148.464 59.7686C148.539 59.7129 148.762 59.6386 151.796 58.7649L151.182 57.3155V57.3151H151.182V57.3149ZM145.561 60.6046C145.785 60.6046 146.38 66.3098 146.529 69.9155C146.566 70.6773 146.547 71.1791 146.51 71.1791C146.362 71.1791 143.365 69.4138 141.225 68.0758C139.363 66.9048 135.827 64.5631 135.269 64.1171C135.082 63.9871 135.101 63.9686 136.627 63.4481C139.214 62.5745 145.357 60.6046 145.561 60.6046ZM133.016 64.7304C133.184 64.7304 133.612 64.9717 134.636 65.6038C138.47 68.0011 143.681 70.9004 145.915 71.8669C146.603 72.1642 146.678 72.0525 145.096 73.1306C141.708 75.435 137.483 77.7022 132.309 79.9881C131.397 80.397 130.634 80.7128 130.615 80.7128C130.578 80.7128 130.69 80.2485 130.838 79.6908C132.085 75.063 132.793 70.3799 132.83 66.6258C132.849 64.7673 132.849 64.7673 133.016 64.7118C132.979 64.7304 132.998 64.7304 133.016 64.7304ZM130.429 65.7153C130.541 65.8266 130.466 69.9897 130.317 71.1232C129.982 73.8366 129.461 76.364 128.605 79.2076C128.401 79.8948 128.214 80.4713 128.177 80.5083C128.103 80.6011 125.553 78.1109 124.715 77.1445C123.263 75.4719 122.128 73.7993 121.291 72.1639C120.862 71.3276 120.193 69.6924 120.248 69.6365C120.546 69.4321 130.355 65.641 130.429 65.7153ZM118.257 70.4914C118.275 70.4914 118.294 70.4914 118.313 70.5099C118.35 70.5471 118.48 70.8445 118.592 71.1789C119.187 72.7958 120.527 75.1746 121.681 76.6985C122.947 78.3712 124.604 80.1551 125.981 81.326C126.428 81.6976 126.837 82.0506 126.893 82.1065C127.004 82.2181 127.042 82.1993 124.008 83.3517C120.49 84.6897 116.656 86.0278 112.263 87.4401C111.214 87.7779 110.166 88.1186 109.118 88.4623C108.95 88.5182 109.006 88.4251 109.49 87.6633C111.668 84.2623 114.981 77.5906 116.842 72.8701C117.159 72.0524 117.475 71.2348 117.531 71.0489C117.605 70.7886 117.698 70.6957 117.94 70.5656C118.07 70.5287 118.201 70.4914 118.257 70.4914ZM114.534 72.0339C114.59 72.0712 113.641 74.0595 112.71 75.8808C110.905 79.3932 108.932 82.8501 106.289 87.0501C105.842 87.7747 105.414 88.444 105.358 88.5183C105.265 88.6484 105.228 88.6111 104.93 88.0351C104.297 86.7899 103.776 85.1915 103.497 83.7233C103.218 82.2736 103.274 79.7463 103.59 78.1853C103.832 77.0332 103.813 77.0518 104.372 76.7729C106.754 75.565 114.46 71.9596 114.534 72.0339ZM146.641 73.3349V74.1154C146.641 78.2597 146.194 83.9465 145.542 88.091C145.431 88.8156 145.337 89.4101 145.319 89.429C145.319 89.429 144.779 89.2805 144.147 89.0943C141.355 88.2208 138.321 86.9385 135.585 85.4334C133.779 84.4484 131.155 82.8314 131.23 82.757C131.248 82.7385 132.03 82.3297 132.942 81.8464C136.59 79.9509 140.089 77.9067 143.123 75.881C144.258 75.1189 145.97 73.8926 146.343 73.5579L146.641 73.3349ZM100.482 78.8355C100.556 78.8355 100.537 78.9842 100.426 79.6533C100.351 80.1366 100.258 81.0287 100.221 81.6417C100.072 84.3551 100.519 86.3623 101.859 89.1127C102.231 89.8747 102.529 90.5066 102.511 90.525C102.38 90.6367 90.0589 94.2422 86.1872 95.3013C85.0334 95.6171 84.0285 95.896 83.9536 95.9144C83.8236 95.9517 83.8049 95.9332 83.8607 95.617C84.2887 92.8853 86.3734 89.3171 89.2768 86.3063C91.2126 84.2993 92.7576 83.1286 95.4005 81.623C97.299 80.5453 100.221 78.9287 100.444 78.8541C100.445 78.8355 100.463 78.8355 100.482 78.8355ZM129.517 84.0206C129.536 84.0021 129.982 84.2438 130.522 84.5596C134.505 86.8642 140.052 89.0014 144.779 90.0978L145.207 90.1908L144.612 90.525C142.136 91.9004 134.003 95.2826 125.683 98.3864C124.473 98.8322 123.282 99.2784 123.058 99.3712C122.835 99.464 122.63 99.5199 122.63 99.5014C122.63 99.4825 122.965 98.8321 123.393 98.0332C125.72 93.6845 128.065 88.388 129.256 84.7082C129.406 84.3552 129.498 84.0394 129.517 84.0206ZM126.558 84.9871C126.577 85.0061 126.428 85.396 126.241 85.842C124.622 89.7632 122.5 94.0379 119.783 98.8325C119.094 100.059 118.517 101.044 118.498 101.044C118.48 101.044 117.921 100.709 117.251 100.301C113.305 97.8847 109.806 94.9112 107.517 92.0306L107.182 91.6218L108.876 91.1571C114.943 89.5033 120.099 87.7192 125.218 85.5263C125.944 85.2289 126.539 84.9871 126.558 84.9871ZM144.947 91.3987C144.966 91.8262 144.016 95.6546 143.234 98.4234C142.583 100.746 142.024 102.568 141.001 105.783C140.554 107.195 140.164 108.366 140.145 108.366C140.126 108.366 140.015 108.347 139.903 108.31C134.375 107.307 129.424 105.913 124.771 104.055C123.468 103.534 121.607 102.698 121.495 102.605C121.458 102.567 122.575 102.047 123.989 101.434C132.458 97.7357 141.243 93.5356 144.258 91.7332C144.612 91.5101 144.891 91.3987 144.947 91.3987ZM102.492 92.8484C102.529 92.8854 100.165 96.2865 96.8522 100.914C95.6983 102.531 94.3583 104.426 93.8558 105.132C93.3532 105.839 92.5902 106.954 92.1621 107.623L91.38 108.831L90.5424 108.125C89.5559 107.307 87.8437 105.56 87.0806 104.594C85.4798 102.605 84.4005 100.505 83.9724 98.5912C83.7676 97.699 83.7676 97.2527 83.9535 97.1973C84.2327 97.123 89.2023 95.9521 93.8557 94.874C96.4428 94.2795 99.4392 93.5733 100.519 93.3131C101.598 93.0525 102.473 92.8484 102.492 92.8484ZM104.874 93.759L105.47 94.428C108.15 97.4201 110.886 99.632 114.199 101.564C114.795 101.899 115.241 102.196 115.204 102.215C115.074 102.308 103.702 106.34 98.4343 108.162C95.4751 109.202 93.0367 110.039 93.0183 110.039C92.9998 110.039 92.8321 109.927 92.6457 109.797L92.3109 109.555L92.8506 108.775C94.6001 106.248 96.7967 103.479 101.58 97.7175L104.874 93.759ZM119.727 104.37C119.746 104.352 120.565 104.649 121.569 105.021C123.989 105.932 125.906 106.508 128.475 107.158C131.639 107.957 136.218 108.738 138.917 108.961C139.326 108.998 139.549 109.035 139.475 109.091C139.344 109.166 136.609 110.076 134.599 110.708C131.397 111.711 121.626 114.592 113.659 116.878C112.189 117.305 110.923 117.658 110.849 117.677C110.663 117.714 110.049 117.547 110.049 117.472C110.049 117.435 110.495 116.859 111.035 116.227C113.715 113.031 116.377 109.463 118.592 106.08C119.206 105.151 119.727 104.389 119.727 104.37ZM116.451 104.464C116.47 104.482 115.148 106.601 112.841 110.243C111.854 111.786 110.756 113.532 110.365 114.146C109.993 114.74 109.434 115.67 109.118 116.19L108.578 117.138L108.299 117.064C107.629 116.878 102.92 115.224 101.673 114.722C100.128 114.109 98.5273 113.365 97.3359 112.734C95.8471 111.934 93.986 110.745 94.1348 110.708C94.1719 110.689 96.7219 110.001 99.7928 109.165C107.945 106.954 112.468 105.671 115.428 104.742C115.967 104.575 116.433 104.445 116.451 104.464ZM139.624 109.89H139.642C139.717 110.076 136.702 118.439 135.603 121.078C135.362 121.672 135.269 121.821 135.138 121.802C134.822 121.784 130.448 121.171 127.786 120.78C123.152 120.074 115.372 118.717 113.418 118.272L112.971 118.179L115.744 117.546C121.7 116.208 124.566 115.484 127.47 114.592C131.136 113.477 134.766 112.083 138.433 110.373C139.009 110.113 139.493 109.909 139.624 109.89Z" fill="url(#paint0_linear_109_3051)"/>
<path d="M125.794 0.000951863C125.385 -0.0544955 118.777 2.32426 114.515 4.05238C108.764 6.39428 104.297 8.62452 101.542 10.5569C100.519 11.282 99.2342 12.5641 99.0298 13.0658C98.9554 13.2517 98.918 13.4747 98.918 13.6976L101.412 16.0579L107.349 17.9535L121.476 20.481L137.632 23.2501L137.799 21.8563C137.744 21.8563 137.706 21.8378 137.651 21.8378L135.529 21.5031L135.101 20.7413C132.904 16.8756 130.485 12.0808 129.07 8.84716C127.972 6.33823 126.93 3.43937 126.353 1.35783C126.036 0.0941062 125.999 0.0198055 125.795 0.00129447V0.000865557H125.794V0.000951863ZM125.496 0.949042H125.515C125.534 0.967381 125.608 1.48809 125.683 2.10101C125.999 4.70318 126.576 7.21168 127.488 9.92509C128.177 11.9694 128.177 11.858 127.377 11.6163C125.478 11.0961 116.972 9.62788 110.811 8.77303C109.825 8.64285 108.987 8.51285 108.987 8.49434C108.913 8.42004 113.436 6.05962 115.427 5.13065C117.977 3.95957 124.975 1.04185 125.496 0.949042ZM107.554 9.27471L108.28 9.51604C112.226 10.8543 122.146 12.75 127.618 13.196C128.232 13.2518 128.754 13.3076 128.772 13.3076C128.791 13.3261 128.27 13.6049 127.6 13.9207C124.957 15.2402 122.053 16.8571 120.043 18.1023C119.448 18.4738 118.908 18.7714 118.833 18.7714C118.759 18.7714 118.368 18.697 117.959 18.6412L117.214 18.5295L115.353 16.7082C112.077 13.5304 109.509 11.0774 108.522 10.148L107.554 9.27471ZM106.81 9.8507L109.434 13.1217C110.867 14.9243 112.319 16.6897 112.636 17.0798C112.952 17.4704 113.212 17.7864 113.194 17.805C113.119 17.8607 109.397 17.1357 107.424 16.6899C105.395 16.2252 104.558 16.0022 103.311 15.6121L102.287 15.2774V15.0171C102.305 13.7719 103.888 11.9136 106.568 10.0182L106.81 9.8507ZM129.107 14.311C129.182 14.311 129.275 14.4782 129.498 14.98C130.131 16.3737 132.104 20.1279 132.588 20.8526C132.737 21.0944 132.997 21.1129 130.373 20.6855C124.064 19.6631 122.035 19.3289 122.035 19.2917C122.035 19.2732 122.221 19.1431 122.463 19.0129C124.417 17.9352 126.39 16.5598 128.14 15.0916C128.568 14.7385 128.959 14.404 129.033 14.3481C129.051 14.311 129.089 14.2925 129.107 14.311Z" fill="url(#paint1_linear_109_3051)"/>
<path d="M99.1604 12.8057C99.1604 12.8057 98.7512 13.4564 99.1419 14.4228C99.3841 15.0173 100.091 15.742 100.891 16.4855C100.891 16.4855 109.174 24.551 110.179 25.7034C114.758 30.9812 116.749 36.1848 116.935 43.3584C117.047 47.9673 116.172 52.0187 113.995 56.7206C110.123 65.1579 101.952 74.4687 89.3516 84.8016L91.1945 84.1883C92.3856 83.2961 94.005 82.3486 97.8018 80.267C106.568 75.472 116.433 71.0676 128.531 66.533C145.952 59.9912 174.597 52.3343 190.901 49.8443L192.595 49.584L192.334 49.1751C190.846 46.8706 189.822 45.4397 188.593 43.9158C185.02 39.4927 180.683 35.9061 175.378 32.9325C168.082 28.8628 158.646 25.6849 146.697 23.3246C144.445 22.8784 139.494 22.0236 135.473 21.4104C126.949 20.0912 121.439 19.1804 115.372 18.1397C113.194 17.7678 109.937 17.2104 107.778 16.7459C106.661 16.5041 104.521 16.0024 102.846 15.4263C101.506 14.9057 99.5699 14.3854 99.1604 12.8057ZM103.963 17.4519C103.981 17.4336 104.279 17.5447 104.67 17.6749C105.377 17.9162 106.289 18.1951 107.369 18.4927C108.186 18.717 109.005 18.9338 109.826 19.143C110.942 19.4216 111.873 19.6819 111.891 19.6819C112.022 19.8121 113.902 25.8144 114.535 28.1189C114.776 28.9926 114.963 29.7358 114.944 29.7358C114.925 29.7546 114.721 29.4385 114.479 29.0111C112.301 25.1827 108.858 21.2986 104.875 18.1763C104.354 17.805 103.963 17.4704 103.963 17.4519ZM113.12 19.9794C113.213 19.9794 113.623 20.0352 114.125 20.1466C117.289 20.8527 122.966 21.9307 126.595 22.544C127.21 22.6368 127.694 22.7486 127.694 22.7855C127.694 22.8229 127.47 22.9527 127.191 23.1016C126.577 23.4174 124.101 24.8854 123.282 25.443C121.216 26.8182 119.355 28.305 118.015 29.643C117.475 30.182 117.01 30.628 117.01 30.628C117.01 30.628 116.898 30.3122 116.805 29.9217C116.135 27.3384 114.739 23.51 113.474 20.8154C113.269 20.3882 113.101 19.9978 113.101 19.9608C113.101 19.9979 113.101 19.9794 113.12 19.9794ZM129.238 23.0458C129.35 23.0828 129.536 23.7147 129.908 25.1085C130.597 27.8034 130.914 30.814 130.802 33.6202C130.764 34.4007 130.727 35.1254 130.69 35.2186L130.634 35.4042L129.666 35.0884C127.675 34.4565 124.436 33.5085 121.663 32.7281C120.081 32.3007 118.797 31.9104 118.797 31.8733C118.797 31.7616 121.105 29.4573 122.091 28.5839C123.971 26.9297 129.071 22.9899 129.238 23.0458ZM130.523 23.2314C130.579 23.1759 138.228 24.4951 141.709 25.1643C144.296 25.6659 148.056 26.4466 148.279 26.5396C148.391 26.5767 148 26.7997 146.753 27.3571C141.839 29.5688 138.191 31.5571 134.562 33.9733C133.612 34.6051 132.812 35.1254 132.793 35.1254C132.775 35.1254 132.756 34.5866 132.756 33.9361C132.756 30.4052 132.049 26.8369 130.746 23.8263C130.616 23.5289 130.504 23.2502 130.523 23.2314ZM150.308 27.1343C150.364 27.19 150.121 28.6955 149.898 29.5874C149.228 32.3565 147.423 36.4639 145.208 40.3292C144.817 41.0168 144.463 41.5744 144.426 41.5929C144.389 41.6114 143.886 41.3325 143.309 40.998C141.15 39.7343 138.694 38.545 136.013 37.4298C135.269 37.114 134.617 36.8536 134.599 36.8168C134.468 36.7051 140.462 32.7467 143.626 30.8511C146.139 29.3273 150.233 27.0598 150.308 27.1343ZM151.722 27.3572C151.89 27.3572 155.277 28.2865 157.045 28.8069C161.419 30.1079 166.444 31.9476 169.72 33.4343L171.079 34.0478L170.13 34.2706C162.127 36.1104 155.277 38.2293 148.67 40.9053C148.13 41.1283 147.646 41.3142 147.609 41.3142C147.572 41.3142 147.758 40.8868 148 40.3663C149.991 36.1477 151.276 31.7432 151.592 27.989C151.611 27.6358 151.666 27.3572 151.722 27.3572ZM117.996 35.0884C118.052 35.0325 120.639 35.646 122.035 36.0359C124.157 36.6308 128.661 38.1359 128.661 38.2476C128.661 38.2661 128.159 38.6936 127.563 39.2141C125.125 41.2398 122.78 43.3767 119.969 46.0901C119.132 46.8895 118.425 47.5399 118.387 47.5399C118.35 47.5399 118.332 47.4281 118.35 47.2795C118.778 44.1572 118.685 40.1432 118.09 36.0732C118.034 35.5527 117.978 35.1069 117.996 35.0884ZM172.364 35.1443C172.4 35.1812 171.172 37.114 170.39 38.2103C169.274 39.8085 167.636 41.9275 163.932 46.5735C161.978 49.0264 159.781 51.7957 159.056 52.7248C158.311 53.654 157.697 54.4344 157.678 54.4344C157.659 54.4344 157.418 54.1001 157.157 53.6913C155.072 50.569 152.578 47.8371 149.619 45.384C149.06 44.9193 148.446 44.4175 148.242 44.2688C148.037 44.1202 147.869 43.9715 147.869 43.953C147.869 43.8974 151.033 42.5404 153.435 41.5743C157.641 39.8644 163.373 37.8202 167.673 36.5006C169.925 35.7945 172.326 35.1069 172.364 35.1443ZM173.797 35.5157C173.871 35.4973 174.318 35.7203 174.857 36.0359C179.38 38.6191 183.81 41.9459 187.309 45.3654C188.296 46.3319 190.734 48.8594 190.696 48.8779C190.696 48.8779 189.84 48.9522 188.835 49.0264C181 49.6213 170.968 51.2751 161.326 53.598C160.675 53.7466 160.098 53.8767 160.061 53.8767C160.024 53.8767 160.749 53.1521 161.662 52.2787C167.32 46.8335 169.907 43.3955 172.959 37.2625C173.387 36.3521 173.759 35.5716 173.797 35.5157C173.778 35.5157 173.778 35.5157 173.797 35.5157ZM132.347 39.7532C132.607 39.8086 135.027 40.9427 136.851 41.8531C138.526 42.689 141.039 44.0274 141.169 44.1387C141.188 44.1572 140.294 44.6219 139.196 45.161C135.697 46.9078 132.7 48.5617 129.573 50.4573C128.68 50.9964 127.935 51.4426 127.917 51.4426C127.842 51.4426 127.861 51.3679 128.364 50.4573C130.039 47.4098 131.379 43.7672 132.142 40.2175C132.216 39.9388 132.291 39.7532 132.347 39.7532ZM129.927 40.199C129.983 40.2549 129.35 42.5405 128.959 43.7857C128.196 46.146 126.912 49.1008 125.665 51.331C125.367 51.8511 124.92 52.6131 124.678 53.0405L124.213 53.7838L123.171 52.7806C121.961 51.6096 120.974 50.8849 119.709 50.2343C119.206 49.9743 118.815 49.7511 118.815 49.7141C118.815 49.5655 121.998 46.6849 124.436 44.6035C126.186 43.0981 129.871 40.1433 129.927 40.199ZM144.724 46.2762L145.636 46.8707C147.72 48.2275 150.177 50.03 152.057 51.6096C153.118 52.4829 155.165 54.3231 155.575 54.769L155.798 55.0109L154.291 55.4382C145.766 57.7982 139.177 59.8982 131.49 62.7232C130.634 63.039 129.908 63.2992 129.852 63.2992C129.741 63.2992 129.648 63.392 131.565 61.6264C136.479 57.1108 140.834 52.1299 144.073 47.2794L144.724 46.2762ZM140.834 47.2425C140.871 47.2795 138.321 50.8662 136.795 52.892C134.971 55.308 131.732 59.3593 129.499 61.998C128.568 63.0947 127.768 64.0053 127.731 64.0239C127.675 64.0424 127.656 63.7638 127.656 63.3363C127.656 61.0874 127.079 58.69 126.074 56.6459C125.646 55.7911 125.572 55.5866 125.665 55.4938C126.018 55.1777 131.435 52.0927 134.859 50.253C137.167 49.0265 140.778 47.2053 140.834 47.2425ZM117.308 53.0036C117.364 53.0036 117.792 53.2264 118.276 53.4868C119.467 54.1372 120.528 54.8619 121.477 55.6427C121.514 55.6797 121.03 56.0701 120.397 56.5344C118.629 57.7981 115.949 59.824 114.386 61.0692C112.748 62.3701 112.692 62.4072 112.878 62.1285C114.107 60.2515 114.721 59.1921 115.372 57.8356C115.949 56.6278 116.526 55.1967 116.935 53.9515C117.084 53.4125 117.271 53.0036 117.308 53.0036ZM123.58 57.9097C123.673 57.8914 123.785 58.0584 124.287 58.8019C125.348 60.3813 126.167 62.5002 126.372 64.2099L126.409 64.5818L123.86 65.5668C119.299 67.3321 115.093 69.0792 112.245 70.3798C111.445 70.7517 110.049 71.4206 109.137 71.8669C108.225 72.3312 107.48 72.6844 107.48 72.6658C107.48 72.6473 108.057 72.2199 108.765 71.6993C114.33 67.6668 119.15 63.2435 122.761 58.8205C123.152 58.3558 123.506 57.9283 123.543 57.9098L123.58 57.9097ZM120.695 58.6161C120.77 58.6904 118.648 61.0876 117.196 62.5557C113.604 66.2171 110.049 69.0792 105.638 71.8669C105.079 72.2199 104.577 72.5357 104.521 72.573C104.391 72.6473 104.558 72.4614 106.494 70.3613C107.722 69.0418 108.653 67.9268 109.714 66.5517C110.421 65.6413 110.551 65.5111 111.575 64.786C114.311 62.816 120.621 58.5416 120.695 58.6161Z" fill="url(#paint2_radial_109_3051)"/>
<path d="M40.0976 135.568C39.7542 135.568 39.4108 135.6 39.0705 135.6C32.1355 135.969 27.4582 139.017 24.7234 144.968C22.3845 150.35 22.6398 157.385 24.7497 162.8C27.2031 168.091 31.1675 170.884 37.7848 171.939C39.185 172.168 40.1238 172.935 42.8355 176.097L46.1721 180H52.2236L48.1997 175.949C45.9754 173.729 44.1763 171.795 44.1763 171.625C44.1763 171.455 45.0272 171.083 46.0572 170.77C49.4526 169.744 52.2723 167.124 54.2448 163.11C55.8411 159.887 56.0702 158.89 56.2991 154.88C56.8978 142.942 50.5942 135.479 40.0973 135.564L40.0976 135.568ZM45.4031 166.785C42.4592 168.209 38.1843 168.493 35.3938 167.471C32.5087 166.413 29.7152 163.421 28.4589 160.034C27.0622 156.33 27.2616 149.498 28.858 146.421C31.4258 141.522 34.8214 139.268 39.7835 139.268C47.1434 139.268 51.3303 143.769 51.8767 152.228C52.3085 159.29 49.9402 164.587 45.4063 166.782L45.4031 166.785ZM149.941 145.764C147.402 145.764 145.459 146.79 144.15 148.811L143.123 150.412V146.251H138.73V171.204H143.121V163.228C143.121 155.935 143.212 155.083 144.232 153.087C145.639 150.35 148.059 148.985 150.399 149.638L151.969 150.095V145.771H149.941V145.764ZM124.132 145.536C123.271 145.536 122.358 145.65 121.45 145.849C115.571 147.384 112.258 153.002 112.46 158.783C112.46 163.624 113.402 166.044 115.741 168.582C120.534 172.507 124.868 172.821 130.716 170.714C131.714 170.29 132.8 169.8 132.8 169.8V165.874L130.716 166.952C125.983 169.009 122.418 169.009 119.562 166.586C117.74 164.734 116.938 162.513 116.569 159.979H134.282V156.614C134.282 149.755 130.147 145.425 124.128 145.536H124.132ZM116.968 156.477C116.968 156.477 117.622 152.199 120.049 150.52C121.217 149.697 122.558 149.298 123.87 149.298C125.185 149.298 126.497 149.723 127.579 150.549C129.804 152.257 130.177 156.445 130.177 156.445H116.968V156.477H116.968ZM11.06 151.977C6.29744 149.096 4.18429 147.018 4.44268 144.569C5.18181 137.792 13.5691 138.729 18.2138 141.293L18.2469 136.734C18.2469 136.734 15.6789 135.623 11.9988 135.564C6.35295 135.479 2.70241 137.328 0.991862 141.091C-1.52057 146.643 0.704055 150.83 8.74455 155.501C13.2585 158.123 15.2537 160.4 15.2537 162.882C15.2537 168.01 9.06162 169.8 2.6733 166.583C1.35856 165.929 0.246249 165.384 0.187421 165.384C-0.0417088 166.837 0.0764006 170.316 0.0764006 170.316C0.0764006 170.316 2.03916 171.139 4.98285 171.707C12.2836 173.16 18.9275 169.741 19.5554 164.188C20.1018 158.976 18.214 156.242 11.0603 151.973L11.06 151.977ZM188.821 145.477C187.964 145.477 187.054 145.594 186.105 145.794C180.234 147.329 176.927 152.947 177.152 158.728C177.152 163.562 178.091 165.959 180.43 168.493C185.222 172.423 189.557 172.739 195.435 170.63C196.429 170.205 197.512 169.722 197.512 169.722V165.79L195.432 166.874C190.689 168.925 187.123 168.925 184.277 166.501C182.445 164.653 181.65 162.458 181.281 159.894H198.964V156.53C198.964 149.704 194.829 145.369 188.811 145.484L188.821 145.477ZM181.657 156.418C181.657 156.418 182.318 152.146 184.741 150.435C185.906 149.609 187.247 149.21 188.559 149.21C189.867 149.21 191.186 149.635 192.269 150.464C194.493 152.172 194.866 156.389 194.866 156.389H181.66L181.657 156.418ZM101.136 152.032C96.3733 149.158 94.2665 147.074 94.5217 144.624C95.2609 137.844 103.648 138.784 108.293 141.349L108.326 136.789C108.326 136.789 105.758 135.679 102.078 135.626C96.432 135.541 92.7815 137.39 91.0678 141.152C88.5588 146.705 90.8125 150.892 98.8266 155.563C103.334 158.182 105.33 160.429 105.33 162.911C105.33 168.039 99.1407 169.859 92.7522 166.612C91.4438 165.959 90.3318 165.42 90.2663 165.42C90.0372 166.873 90.1553 170.352 90.1553 170.352C90.1553 170.352 92.0948 171.145 95.029 171.743C102.337 173.2 108.983 169.783 109.608 164.231C110.151 159.044 108.267 156.31 101.136 152.038V152.032H101.136ZM214.633 145.706C212.094 145.706 210.129 146.734 208.843 148.756L207.816 150.35V146.196H203.423V171.142H207.812V163.167C207.812 155.876 207.9 155.021 208.925 153.028C210.331 150.295 212.752 148.926 215.091 149.583L216.66 150.04V145.706L214.633 145.706ZM66.2008 151.888V135.995H61.7719V171.198H80.3976V167.04H66.201V151.888H66.2008ZM168.625 156.843L164.974 166.328L161.464 156.791L157.899 146.222H153.365C156.303 154.537 159.498 162.996 162.721 171.198C164.117 171.23 165.517 171.198 166.914 171.198L171.844 158.839L176.865 146.225H172.531C172.531 146.225 170.617 151.235 168.622 156.846L168.625 156.843ZM76.4065 126.403C77.1197 126.403 77.7149 126.174 78.2056 125.684C78.6895 125.201 78.9447 124.632 78.9447 123.92C78.9447 123.208 78.6895 122.614 78.2056 122.157C77.7149 121.699 77.1489 121.471 76.4391 121.471C75.7197 121.471 75.1242 121.699 74.64 122.183C74.1494 122.666 73.9269 123.261 73.9269 123.947C73.9269 124.665 74.1561 125.259 74.64 125.71C75.0981 126.167 75.6935 126.396 76.4065 126.396V126.403ZM74.8365 122.353C75.2616 121.928 75.7785 121.732 76.4392 121.732C77.0608 121.732 77.5778 121.928 78.0097 122.353C78.4349 122.777 78.6638 123.293 78.6638 123.92C78.6638 124.547 78.4349 125.09 78.0097 125.514C77.5779 125.938 77.0608 126.141 76.4392 126.141C75.808 126.141 75.2943 125.945 74.8693 125.514C74.444 125.09 74.2151 124.547 74.2151 123.92C74.2151 123.293 74.4113 122.777 74.8365 122.353ZM75.8929 124.149H76.1807C76.3837 124.149 76.5831 124.345 76.7531 124.717L77.0969 125.488H77.6365L77.2114 124.632C77.0381 124.289 76.8681 124.09 76.6684 124.034C76.9203 123.976 77.1197 123.891 77.2637 123.721C77.4073 123.574 77.4598 123.375 77.4598 123.149C77.4598 122.888 77.3781 122.692 77.2049 122.548C77.0085 122.385 76.6945 122.297 76.2887 122.297H75.3797V125.488H75.8375V124.149L75.8929 124.149ZM75.8929 122.666H76.2922C76.58 122.666 76.7828 122.725 76.894 122.81C77.002 122.895 77.0314 123.006 77.0314 123.208C77.0314 123.577 76.8022 123.751 76.3772 123.751H75.8867V122.666H75.8929ZM2.73168 123.865C2.73168 122.754 2.69909 121.928 2.67285 121.441H2.69909C2.81343 122.016 2.95417 122.444 3.06866 122.728L7.3209 132.213H8.03408L12.2863 122.643C12.4011 122.382 12.5156 121.99 12.6562 121.445H12.6888C12.6038 122.392 12.5744 123.215 12.5744 123.871V132.243H14.0298V119.799H12.2046L8.29579 128.454C8.15174 128.797 7.95218 129.31 7.6971 129.989H7.63797C7.55305 129.652 7.35348 129.14 7.06899 128.512L3.24816 119.769H1.30863V132.213H2.7086V123.871L2.73168 123.865ZM17.2193 123.888H18.4757V131.638H17.2193V123.888ZM17.8474 121.046C18.1093 121.046 18.3316 120.958 18.5016 120.785C18.6751 120.615 18.7897 120.393 18.7897 120.132C18.7897 119.877 18.7045 119.648 18.5051 119.479C18.3285 119.305 18.1027 119.217 17.8443 119.217C17.5893 119.217 17.3604 119.305 17.1899 119.479C17.017 119.648 16.9022 119.877 16.9022 120.132C16.9022 120.416 16.9906 120.615 17.1899 120.785C17.3866 120.958 17.5892 121.046 17.8443 121.046H17.8474ZM27.4319 131.808V130.443C26.7449 130.956 26.0056 131.211 25.2402 131.211C24.3246 131.211 23.5817 130.897 23.0387 130.296C22.4991 129.702 22.2113 128.875 22.2113 127.847C22.2113 126.769 22.4991 125.913 23.0943 125.26C23.6668 124.633 24.4095 124.319 25.3189 124.319C26.0614 124.319 26.7741 124.548 27.4321 125.005V123.552C26.8335 123.238 26.1499 123.094 25.3778 123.094C23.9514 123.094 22.8396 123.552 22.0087 124.434C21.1842 125.316 20.759 126.514 20.759 127.961C20.759 129.248 21.1285 130.329 21.8975 131.156C22.6988 132.005 23.723 132.436 24.9789 132.436C25.9501 132.409 26.7449 132.207 27.4319 131.808ZM31.0267 127.677C31.0267 126.654 31.2556 125.828 31.6809 125.259C32.0801 124.747 32.564 124.489 33.1365 124.489C33.6207 124.489 33.964 124.577 34.2158 124.776V123.293C34.0197 123.208 33.735 123.179 33.3655 123.179C32.8519 123.179 32.3942 123.352 31.9918 123.669C31.5665 124.005 31.2264 124.518 31.0268 125.171H30.9942V123.352H29.5713V132.236H30.9974V127.677H31.0267ZM39.2142 132.412C40.5555 132.412 41.6349 131.981 42.4362 131.126C43.2342 130.276 43.6333 129.133 43.6333 127.709C43.6333 126.256 43.2672 125.145 42.5213 124.318C41.7822 123.493 40.7548 123.094 39.4135 123.094C38.0722 123.094 36.9928 123.492 36.1915 124.263C35.3346 125.113 34.8831 126.311 34.8831 127.85C34.8831 129.189 35.2495 130.299 36.0217 131.126C36.8196 131.981 37.8763 132.409 39.2142 132.409V132.412ZM37.1862 125.175C37.7292 124.603 38.4425 124.319 39.3254 124.319C40.2416 124.319 40.9284 124.603 41.4387 125.175C41.9522 125.772 42.2075 126.625 42.2075 127.765C42.2075 128.849 41.9784 129.701 41.4942 130.273C41.0103 130.871 40.2971 131.187 39.3548 131.187C38.4391 131.187 37.7292 130.87 37.1862 130.273C36.6466 129.672 36.388 128.849 36.388 127.765C36.3325 126.687 36.6172 125.805 37.1862 125.175ZM49.8782 131.638C50.4211 131.155 50.7092 130.561 50.7092 129.816C50.7092 129.162 50.4799 128.62 50.0548 128.192C49.7079 127.85 49.1718 127.539 48.3965 127.226C47.7092 126.939 47.2841 126.683 47.055 126.484C46.8262 126.256 46.6854 125.972 46.6854 125.57C46.6854 125.201 46.8295 124.917 47.111 124.688C47.3988 124.46 47.7652 124.349 48.2559 124.349C49.0246 124.349 49.6819 124.551 50.2836 124.979V123.555C49.708 123.268 49.0832 123.13 48.3701 123.13C47.4543 123.13 46.6823 123.382 46.1129 123.868C45.5142 124.352 45.2298 124.979 45.2298 125.717C45.2298 126.37 45.4259 126.913 45.7986 127.311C46.1127 127.651 46.6495 127.997 47.395 128.307C48.1083 128.621 48.5924 128.905 48.8506 129.133C49.1057 129.362 49.2202 129.646 49.2202 129.983C49.2202 130.812 48.6512 131.24 47.5389 131.24C46.6818 131.24 45.9134 130.959 45.226 130.391V131.926C45.8477 132.298 46.5936 132.468 47.4178 132.468C48.4744 132.412 49.3018 132.154 49.8711 131.642L49.8782 131.638ZM56.6689 123.094C55.3275 123.094 54.2482 123.493 53.4468 124.263C52.5963 125.113 52.1384 126.312 52.1384 127.85C52.1384 129.189 52.5083 130.3 53.2768 131.126C54.0782 131.981 55.1314 132.409 56.4727 132.409C57.8464 132.409 58.8934 131.978 59.6947 131.122C60.4961 130.273 60.8951 129.13 60.8951 127.706C60.8951 126.253 60.5222 125.142 59.7828 124.316C59.0112 123.489 57.9837 123.091 56.6753 123.091L56.6689 123.094ZM59.4361 127.765C59.4361 128.849 59.2072 129.702 58.7231 130.273C58.2389 130.871 57.5257 131.188 56.5836 131.188C55.6673 131.188 54.9578 130.871 54.4146 130.273C53.875 129.672 53.6166 128.849 53.6166 127.765C53.6166 126.622 53.9014 125.74 54.4739 125.145C55.0133 124.577 55.7268 124.289 56.6131 124.289C57.4962 124.289 58.2062 124.577 58.7195 125.145C59.1776 125.772 59.4328 126.625 59.4328 127.765H59.4361ZM63.2897 132.21H64.7126V124.518H66.7962V123.323H64.7124V121.951C64.7124 120.704 65.1964 120.076 66.1975 120.076C66.5345 120.076 66.8779 120.161 67.1332 120.305V119.022C66.8779 118.907 66.5345 118.881 66.1056 118.881C65.3371 118.881 64.7091 119.11 64.1954 119.593C63.5967 120.162 63.2796 120.9 63.2796 121.899V123.356H61.7745V124.551H63.2796V132.214L63.2897 132.21ZM69.1348 129.786C69.1348 131.524 69.9038 132.409 71.4738 132.409C72.0431 132.409 72.4715 132.318 72.8149 132.115V130.894C72.5534 131.09 72.2425 131.182 71.8992 131.182C71.4153 131.182 71.075 131.067 70.8753 130.809C70.6724 130.554 70.558 130.123 70.558 129.528V124.515H72.8148V123.319H70.558V120.7C70.0674 120.87 69.5866 121.014 69.1317 121.157V123.319H67.5943V124.515H69.1317V129.783L69.1348 129.786ZM222.222 146.163C221.738 145.706 221.165 145.477 220.455 145.477C219.736 145.477 219.14 145.706 218.656 146.195C218.172 146.676 217.943 147.273 217.943 147.959C217.943 148.671 218.172 149.266 218.653 149.723C219.137 150.18 219.732 150.409 220.452 150.409C221.161 150.409 221.76 150.18 222.251 149.697C222.732 149.207 222.987 148.642 222.987 147.933C222.961 147.215 222.702 146.62 222.218 146.163L222.222 146.163ZM221.993 149.527C221.567 149.951 221.051 150.147 220.423 150.147C219.801 150.147 219.284 149.951 218.853 149.527C218.427 149.096 218.198 148.557 218.198 147.926C218.198 147.306 218.394 146.79 218.826 146.359C219.251 145.935 219.765 145.738 220.423 145.738C221.044 145.738 221.561 145.935 221.993 146.359C222.418 146.79 222.647 147.306 222.647 147.926C222.647 148.586 222.451 149.096 221.993 149.527ZM220.71 148.073C220.965 148.015 221.168 147.9 221.309 147.76C221.453 147.613 221.506 147.413 221.506 147.185C221.506 146.931 221.424 146.728 221.25 146.588C221.054 146.424 220.737 146.336 220.335 146.336H219.425V149.524H219.884V148.184H220.168C220.364 148.184 220.561 148.38 220.737 148.753L221.077 149.52H221.62L221.195 148.664C221.048 148.292 220.878 148.122 220.705 148.066L220.71 148.073ZM220.396 147.786H219.906V146.709H220.308C220.593 146.709 220.792 146.761 220.907 146.849C221.021 146.934 221.047 147.045 221.047 147.247C221.047 147.616 220.818 147.787 220.393 147.787L220.396 147.786ZM140.814 122.954H141.213V119.763H142.27V119.364H139.758V119.763H140.815V122.954H140.814ZM143.235 120.556C143.235 120.246 143.235 119.991 143.212 119.848C143.238 120.017 143.297 120.132 143.323 120.217L144.55 122.954H144.746L145.976 120.19C146.009 120.106 146.035 119.995 146.091 119.848C146.064 120.132 146.064 120.36 146.064 120.534V122.951H146.49V119.364H145.976L144.864 121.84C144.838 121.928 144.749 122.101 144.694 122.297H144.661C144.638 122.183 144.579 122.069 144.498 121.873L143.385 119.365H142.81V122.957H143.212V120.56L143.235 120.556Z" fill="#231F1F"/>
</g>
<defs>
<linearGradient id="paint0_linear_109_3051" x1="98.7798" y1="110.629" x2="107.677" y2="105.364" gradientUnits="userSpaceOnUse">
<stop stop-color="#909CA9"/>
<stop offset="1" stop-color="#EDEDEE"/>
</linearGradient>
<linearGradient id="paint1_linear_109_3051" x1="98.9833" y1="11.5892" x2="106.148" y2="11.5892" gradientUnits="userSpaceOnUse">
<stop stop-color="#939FAB"/>
<stop offset="1" stop-color="#DCDEE1"/>
</linearGradient>
<radialGradient id="paint2_radial_109_3051" cx="0" cy="0" r="1" gradientUnits="userSpaceOnUse" gradientTransform="translate(135.136 44.3981) rotate(-171.47) scale(9.23674 18.4513)">
<stop stop-color="#EE352C"/>
<stop offset="1" stop-color="#A91D22"/>
</radialGradient>
<clipPath id="clip0_109_3051">
<rect width="223" height="180" fill="white"/>
</clipPath>
</defs>
</svg>
