<svg width="347" height="182" viewBox="0 0 347 182" fill="none" xmlns="http://www.w3.org/2000/svg">
<path d="M0.175781 165.059H11.6622V119.647L29.4436 159.235C31.542 164.026 34.414 165.722 40.0463 165.722C45.6795 165.722 48.4406 164.027 50.5398 159.235L68.3213 119.647V165.058H79.8077V119.721C79.8077 115.298 78.0403 113.16 74.3963 112.055C65.6711 109.327 59.817 111.686 57.1658 117.584L39.7153 156.654L22.8176 117.584C20.2774 111.686 14.3133 109.327 5.58803 112.055C1.94319 113.16 0.175781 115.299 0.175781 119.721V165.059ZM89.3585 128.096H100.841V153.114C100.734 154.474 101.277 157.664 107.569 157.762C110.779 157.813 132.345 157.762 132.546 157.762V127.974H144.056C144.109 127.974 144.044 168.598 144.045 168.77C144.108 178.789 131.629 180.965 125.877 181.134H89.6071V173.396C89.6715 173.396 125.85 173.405 125.941 173.396C133.334 172.614 132.461 168.935 132.46 167.697V164.681H108.045C96.6857 164.576 89.4533 159.612 89.3639 153.903C89.3549 153.374 89.6089 128.346 89.3576 128.095L89.3585 128.096Z" fill="#00618A"/>
<path d="M152.907 165.059H185.93C189.796 165.059 193.55 164.248 196.533 162.847C201.503 160.562 203.933 157.467 203.933 153.411V145.008C203.933 141.69 201.172 138.593 195.76 136.53C192.888 135.423 189.354 134.834 185.93 134.834H172.012C167.376 134.834 165.166 133.433 164.614 130.338C164.504 129.969 164.504 129.673 164.504 129.305V124.072C164.504 123.776 164.504 123.481 164.614 123.113C165.166 120.754 166.382 120.09 170.468 119.722C170.799 119.722 171.24 119.647 171.572 119.647H204.375V111.982H172.124C167.486 111.982 165.055 112.276 162.847 112.939C155.999 115.078 153.017 118.469 153.017 124.366V131.075C153.017 136.235 158.871 140.658 168.7 141.69C169.806 141.763 170.91 141.837 172.013 141.837H183.941C184.384 141.837 184.826 141.837 185.157 141.911C188.802 142.207 190.347 142.869 191.453 144.196C192.115 144.859 192.336 145.523 192.336 146.26V152.968C192.336 153.78 191.784 154.812 190.68 155.696C189.686 156.581 188.029 157.171 185.82 157.319C185.378 157.319 185.047 157.392 184.605 157.392H152.906V165.058L152.907 165.059ZM275.588 151.716C275.588 159.603 281.442 164.027 293.26 164.912C294.364 164.985 295.469 165.059 296.573 165.059H326.504V157.392H296.352C289.615 157.392 287.075 155.696 287.075 151.642V111.981H275.588V151.716ZM211.264 152.118V124.785C211.264 117.841 216.134 113.63 225.762 112.3C226.788 112.153 227.824 112.079 228.861 112.079H250.664C251.77 112.079 252.768 112.153 253.874 112.3C263.503 113.63 268.372 117.841 268.372 124.785V152.117C268.372 157.75 266.304 160.766 261.538 162.73L272.852 172.955H259.515L250.362 164.683L241.146 165.267H228.861C226.758 165.267 224.545 164.971 222.11 164.306C214.806 162.312 211.264 158.471 211.264 152.117V152.118ZM223.661 151.453C223.661 151.823 223.772 152.192 223.883 152.635C224.546 155.812 227.535 157.585 232.072 157.585H242.508L232.922 148.921H246.258L254.619 156.477C256.159 155.655 257.174 154.398 257.528 152.783C257.638 152.414 257.638 152.044 257.638 151.676V125.451C257.638 125.155 257.638 124.786 257.528 124.416C256.863 121.461 253.875 119.763 249.448 119.763H232.072C226.982 119.763 223.662 121.979 223.662 125.451V151.453H223.661Z" fill="#E48E00"/>
<path d="M336.608 99.2632C329.548 99.0716 324.154 99.7289 319.544 101.676C318.233 102.229 316.144 102.243 315.93 103.888C316.65 104.643 316.762 105.772 317.334 106.701C318.434 108.485 320.294 110.875 321.952 112.129C323.764 113.499 325.632 114.963 327.575 116.15C331.03 118.258 334.888 119.463 338.215 121.576C340.176 122.822 342.124 124.391 344.037 125.797C344.982 126.492 345.618 127.572 346.847 128.009V127.807C346.201 126.984 346.035 125.852 345.442 124.993L342.832 122.38C340.28 118.988 337.041 116.01 333.597 113.536C330.851 111.562 324.704 108.897 323.559 105.696L323.357 105.495C325.305 105.276 327.585 104.57 329.381 104.089C332.4 103.278 335.097 103.487 338.215 102.681C339.619 102.279 341.025 101.876 342.431 101.475V100.671C340.855 99.0519 339.732 96.9099 338.013 95.4448C333.518 91.6121 328.611 87.783 323.559 84.5905C320.756 82.8193 317.293 81.6685 314.324 80.1677C313.325 79.6635 311.569 79.4012 310.91 78.5594C309.35 76.5687 308.5 74.0443 307.296 71.725C304.776 66.8669 302.301 61.5602 300.069 56.4478C298.546 52.9626 297.551 49.5257 295.652 46.3977C286.536 31.3919 276.723 22.3358 261.522 13.4328C258.288 11.5397 254.394 10.7911 250.278 9.81499L243.653 9.41202C242.305 8.84786 240.903 7.19746 239.637 6.39689C234.601 3.21251 221.686 -3.71593 217.956 5.39214C215.601 11.1412 221.475 16.7515 223.577 19.6645C225.051 21.708 226.94 23.9987 227.993 26.2975C228.686 27.8082 228.806 29.3224 229.399 30.9209C230.859 34.8584 232.127 39.1415 234.016 42.7799C234.971 44.6211 236.023 46.5607 237.229 48.2066C237.969 49.2176 239.236 49.6627 239.437 51.2226C238.197 52.9599 238.126 55.6553 237.43 57.8556C234.292 67.7615 235.475 80.0728 240.04 87.4042C241.44 89.6546 244.739 94.4813 249.275 92.6303C253.242 91.0121 252.356 85.9983 253.491 81.5754C253.748 80.5725 253.589 79.8346 254.093 79.1629V79.3644L257.707 86.6C260.381 90.9118 265.129 95.4189 269.151 98.46C271.237 100.037 272.879 102.764 275.576 103.686V103.485H275.374C274.852 102.67 274.034 102.331 273.367 101.676C271.796 100.134 270.049 98.2164 268.749 96.4496C265.091 91.4769 261.858 86.035 258.912 80.3692C257.505 77.6648 256.283 74.6792 255.097 71.9265C254.639 70.8653 254.645 69.2606 253.692 68.7098C252.394 70.7274 250.48 72.359 249.476 74.741C247.869 78.5486 247.662 83.1918 247.067 88.0069C246.715 88.1331 246.87 88.0462 246.665 88.2074C243.869 87.5322 242.886 84.6505 241.847 82.1781C239.218 75.9257 238.73 65.8577 241.042 58.6606C241.641 56.798 244.346 50.9325 243.251 49.2132C242.729 47.4965 241.005 46.5034 240.04 45.1924C238.845 43.5706 237.653 41.4358 236.827 39.5633C234.676 34.6882 233.671 29.2159 231.406 24.288C230.324 21.9319 228.493 19.5481 226.99 17.4536C225.325 15.1342 223.461 13.4238 222.171 10.6182C221.712 9.62156 221.089 8.02579 221.769 7.00045C221.986 6.30913 222.291 6.01988 222.975 5.79422C224.139 4.89604 227.382 6.09332 228.595 6.59837C231.815 7.93714 234.502 9.21232 237.229 11.0203C238.539 11.8898 239.862 13.5707 241.445 14.0363H243.251C246.078 14.6865 249.244 14.2378 251.885 15.0411C256.552 16.4613 260.734 18.6696 264.532 21.0714C276.105 28.3866 285.566 38.8003 292.039 51.2226C293.08 53.2223 293.531 55.1315 294.447 57.2529C296.298 61.5316 298.629 65.9338 300.47 70.1176C302.307 74.2906 304.097 78.5039 306.694 81.9775C308.06 83.8034 313.333 84.7831 315.728 85.7959C317.408 86.5069 320.161 87.2475 321.752 88.2074C324.791 90.0432 327.736 92.2282 330.586 94.2386C332.011 95.2433 336.389 97.4471 336.608 99.2632Z" fill="#00618A"/>
</svg>
