<svg width="221" height="180" viewBox="0 0 221 180" fill="none" xmlns="http://www.w3.org/2000/svg">
<g clip-path="url(#clip0_109_3106)">
<path d="M40.0522 148.511L48.0825 179.53H42.0205L36.6717 157.186L26.5873 179.53H21.4667L11.4394 157.315L5.93365 179.53H0L7.95908 148.511H13.2081L24.0484 172.528L34.8459 148.511H40.0522Z" fill="#003545"/>
<path d="M70.9834 160.499V156.887H76.8386V179.53H70.9834V175.883C69.4358 178.504 66.255 180.007 62.3824 180.007C54.2879 180.007 49.7734 174.309 49.7734 167.756C49.7734 161.439 54.0525 156.36 61.5195 156.36C65.7772 156.41 69.3074 157.835 70.9834 160.499ZM56.0066 168.063C56.0066 172.229 58.6311 175.798 63.709 175.798C68.6085 175.798 71.2758 172.315 71.2758 168.191C71.2758 164.067 68.5229 160.541 63.4308 160.541C58.5527 160.541 56.0138 164.06 56.0138 168.063H56.0066Z" fill="#003545"/>
<path d="M90.0395 179.53H84.1914V156.887H90.0395V161.959C90.7082 160.336 91.8392 158.946 93.2921 157.959C94.745 156.973 96.4559 156.434 98.2125 156.41C99.4578 156.393 100.696 156.596 101.871 157.008L100.623 161.282C99.6126 161.014 98.5732 160.871 97.5279 160.855C93.3058 160.855 90.0395 164.031 90.0395 168.689V179.53Z" fill="#003545"/>
<path d="M104.794 150.912C104.783 150.501 104.857 150.092 105.012 149.712C105.167 149.331 105.399 148.986 105.694 148.7C105.989 148.413 106.34 148.191 106.725 148.047C107.111 147.903 107.522 147.841 107.932 147.863C108.351 147.85 108.768 147.921 109.158 148.074C109.548 148.226 109.903 148.457 110.202 148.75C110.5 149.044 110.735 149.396 110.893 149.783C111.051 150.171 111.128 150.586 111.12 151.005C111.129 151.417 111.05 151.826 110.891 152.206C110.731 152.587 110.493 152.929 110.193 153.213C109.893 153.496 109.537 153.713 109.147 153.85C108.758 153.988 108.344 154.042 107.932 154.01C107.519 154.028 107.106 153.96 106.719 153.811C106.333 153.663 105.981 153.436 105.687 153.145C105.392 152.854 105.161 152.506 105.007 152.121C104.854 151.737 104.781 151.325 104.794 150.912ZM105.051 156.888H110.906V173.433C110.906 174.459 111.12 175.193 111.976 175.193C112.353 175.183 112.727 175.14 113.096 175.064L114.002 179.338C112.769 179.823 111.454 180.065 110.129 180.05C107.676 180.05 105.051 179.338 105.051 173.775V156.888Z" fill="#003545"/>
<path d="M137.06 160.499V156.887H142.936V179.53H137.081V175.883C135.533 178.504 132.353 180.007 128.48 180.007C120.393 180.007 115.871 174.309 115.871 167.756C115.871 161.439 120.15 156.36 127.617 156.36C131.853 156.41 135.384 157.835 137.06 160.499ZM122.083 168.063C122.083 172.229 124.707 175.798 129.785 175.798C134.692 175.798 137.359 172.315 137.359 168.191C137.359 164.067 134.599 160.541 129.514 160.541C124.629 160.541 122.09 164.06 122.09 168.063H122.083Z" fill="#003545"/>
<path d="M151.9 148.511H165.929C177.717 148.511 183.608 155 183.523 164.017C183.608 173.39 177.104 179.53 166.963 179.53H151.9V148.511ZM155.773 151.261V176.823H166.471C175.849 176.823 179.422 170.506 179.422 163.931C179.422 156.503 174.95 151.261 166.471 151.261H155.773Z" fill="#003545"/>
<path d="M207.443 179.53H189.613V148.511H205.695C211.843 148.511 217.698 149.665 217.613 156.545C217.613 161.396 214.596 162.735 211.415 163.248C215.93 163.632 218.647 166.51 218.647 171.154C218.675 178.112 212.563 179.53 207.443 179.53ZM206.109 162.044C212.264 162.044 213.64 159.679 213.64 156.674C213.64 152.158 210.887 151.132 206.109 151.132H193.329V162.044H206.109ZM206.28 164.665H193.329V176.909H206.837C210.624 176.909 214.624 175.662 214.624 170.897C214.624 165.399 210.024 164.665 206.28 164.665Z" fill="#003545"/>
<path d="M220.016 0.676533C219.448 0.208907 218.726 -0.0321201 217.991 -0.000104826C215.972 -0.000104826 213.362 1.36742 211.957 2.10103L211.401 2.38594C209.044 3.52534 206.479 4.17015 203.863 4.28052C201.181 4.36599 198.87 4.52269 195.861 4.83608C178.031 6.66656 170.079 20.3133 162.42 33.5113C158.248 40.6908 153.94 48.148 148.035 53.8461C146.813 55.0292 145.515 56.1309 144.148 57.1438C138.036 61.6808 130.362 64.9215 124.393 67.215C118.645 69.4087 112.369 71.3817 106.307 73.2905C100.751 75.0355 95.5093 76.6879 90.6882 78.4757C88.513 79.2805 86.6658 79.9002 85.0327 80.4415C80.6395 81.866 77.473 82.9557 72.8444 86.1395C71.0401 87.3717 69.2286 88.7036 68.0019 89.7007C64.3278 92.6285 61.076 96.0487 58.3384 99.8646C55.9842 103.384 53.2637 106.646 50.2224 109.594C49.2453 110.548 47.5123 111.018 44.9163 111.018C41.8782 111.018 38.191 110.392 34.29 109.729C30.2676 109.017 26.1098 108.34 22.5439 108.34C19.6484 108.34 17.4304 108.81 15.7758 109.765C15.7758 109.765 12.9873 111.389 11.8105 113.49L12.9659 114.01C14.7575 114.98 16.4163 116.177 17.9011 117.571C19.4503 119 21.1759 120.226 23.036 121.218C23.6298 121.435 24.1698 121.778 24.6192 122.222C24.1343 122.934 23.4211 123.853 22.6723 124.836C18.5572 130.214 16.1538 133.611 17.5302 135.463C18.19 135.805 18.9268 135.972 19.6698 135.947C28.6416 135.947 33.4627 133.618 39.5604 130.669C41.329 129.815 43.1263 128.939 45.2658 128.034C48.8317 126.489 52.6686 124.024 56.7408 121.417C62.0683 117.949 67.6382 114.387 73.0441 112.671C77.4869 111.318 82.1145 110.669 86.7586 110.748C92.464 110.748 98.469 111.51 104.26 112.251C108.575 112.806 113.046 113.376 117.432 113.639C119.137 113.739 120.713 113.789 122.246 113.789C124.298 113.795 126.347 113.688 128.387 113.469L128.879 113.298C131.953 111.41 133.393 107.357 134.791 103.44C135.69 100.919 136.446 98.6537 137.644 97.215C137.715 97.1448 137.791 97.0804 137.872 97.0227C137.928 96.9915 137.993 96.9801 138.057 96.9905C138.12 97.0008 138.178 97.0322 138.222 97.0797C138.222 97.0797 138.222 97.1153 138.222 97.1936C137.508 112.514 131.332 122.243 125.085 130.89L120.913 135.356C120.913 135.356 126.754 135.356 130.077 134.074C142.201 130.456 151.351 122.479 158.012 109.758C159.655 106.492 161.124 103.142 162.413 99.7221C162.527 99.4372 163.575 98.9102 163.475 100.385C163.44 100.819 163.411 101.303 163.375 101.809C163.375 102.108 163.375 102.414 163.318 102.721C163.147 104.857 162.641 109.373 162.641 109.373L166.385 107.372C175.414 101.674 182.375 90.178 187.652 72.2933C189.849 64.8432 191.46 57.4429 192.88 50.9258C194.577 43.0911 196.039 36.3745 197.715 33.7677C200.347 29.6794 204.362 26.9158 208.249 24.2307C208.776 23.8674 209.311 23.5184 209.832 23.1338C214.717 19.7079 219.574 15.7549 220.644 8.38309V8.21927C221.421 2.72069 220.765 1.31756 220.016 0.676533Z" fill="#003545"/>
</g>
<defs>
<clipPath id="clip0_109_3106">
<rect width="221" height="180" fill="white"/>
</clipPath>
</defs>
</svg>
