<svg width="249" height="48" viewBox="0 0 249 48" fill="none" xmlns="http://www.w3.org/2000/svg">
<path d="M9.1733 34.9785C9.1733 38.1834 10.3598 39.7838 12.7297 39.7838C15.266 39.7433 17.3677 38.3904 19.0315 35.7282C19.6139 34.8142 20.0922 33.6911 20.4666 32.3579C20.4666 27.7002 20.8825 23.7081 21.7155 20.3783C18.3452 21.0449 15.4127 22.6671 12.9169 25.245C10.4212 27.825 9.1733 31.0705 9.1733 34.9785ZM38.6231 31.2348C39.3719 31.2348 39.7462 32.1936 39.7462 34.105C39.7462 35.1449 39.3095 36.4042 38.437 37.8808C37.5635 39.3575 36.429 40.7104 35.0355 41.9364C33.641 43.1635 32.0926 44.1732 30.3872 44.9636C28.6817 45.7528 27.0179 46.147 25.3957 46.147C23.1901 46.147 21.7155 44.2138 20.9657 40.3443C19.8832 42.134 18.4689 43.6002 16.7229 44.7441C14.9759 45.8891 12.6362 46.46 9.70365 46.46C6.7701 46.46 4.41058 45.5459 2.62196 43.7136C0.833334 41.8844 -0.0401778 39.658 0.00141804 37.0375C0.00141804 29.9683 2.35054 24.3944 7.05191 20.3159C9.04955 18.6115 10.9099 17.4885 12.6362 16.9477C14.3624 16.407 16.1822 16.1356 18.0956 16.1356C20.009 16.1356 21.5689 16.4694 22.7751 17.1339C23.3575 15.9286 24.023 15.3255 24.7717 15.3255C26.2276 15.3255 27.6107 15.9588 28.9209 17.2285C30.2312 18.4982 30.8874 19.692 30.8874 20.8151C30.3029 22.1888 29.4513 23.8318 28.3282 25.7452C27.9954 27.6576 27.828 30.3416 27.828 33.794C27.828 37.2475 28.2658 38.9717 29.1393 38.9717C30.2208 38.9717 32.8413 36.8108 37.0009 32.4848C37.7496 31.6518 38.2904 31.2348 38.6231 31.2348Z" fill="#C8C9CB"/>
<path d="M66.1387 26.9919C66.1387 25.6203 65.3484 24.9339 63.7677 24.9339C62.6862 24.9339 61.4799 25.9842 60.1489 28.0848C58.8168 30.1854 57.8601 32.442 57.2788 34.8545V34.9783C57.2788 36.3946 57.4961 37.8505 57.9329 39.3469C58.3696 40.8443 58.589 41.8842 58.589 42.4666C58.589 43.8808 56.8202 45.2743 53.2856 46.647C52.7438 46.8539 52.2654 46.96 51.8505 46.96C50.8106 46.96 50.092 46.4171 49.6969 45.3367C49.3017 44.2562 49.1041 42.79 49.1041 40.9379C49.1041 39.0869 49.1572 37.3409 49.2612 35.6979C49.3641 34.0549 49.4692 32.5376 49.5731 31.1421C49.6771 29.7486 49.7811 28.5216 49.8841 27.4609C49.9881 26.4002 50.0411 25.5381 50.0411 24.8715C50.0411 23.4583 49.3953 22.7501 48.1069 22.7501C46.8174 22.7501 45.3189 24.258 43.6145 27.2737C41.9081 30.2904 41.0564 32.6812 41.0564 34.4479C41.0564 36.2178 41.2748 37.8505 41.7115 39.3469C42.1483 40.8443 42.3667 41.8842 42.3667 42.4666C42.3667 43.8808 40.5978 45.2743 37.0632 46.647C36.5224 46.8539 36.0431 46.96 35.6281 46.96C34.5882 46.96 33.8707 46.4171 33.4756 45.3367C33.0794 44.2562 32.8828 42.5903 32.8828 40.3441C32.8828 34.4386 33.1105 30.175 33.5691 27.5545C34.192 23.685 35.6063 20.0256 37.8119 16.5721C38.5606 15.4085 39.3718 14.8261 40.2453 14.8261C41.6179 14.8261 42.8866 15.9492 44.0513 18.1954C44.3841 18.7788 44.6326 19.3185 44.8 19.8176C46.7966 17.3219 49.1457 16.073 51.8505 16.073C53.6381 16.073 55.2406 16.6657 56.6548 17.8522C58.0681 19.0377 58.7762 20.5248 58.7762 22.3123V22.9987C61.3125 19.8384 64.4125 18.2578 68.0718 18.2578C70.3191 18.2578 72.0245 18.8401 73.1881 20.0048C74.3528 21.1685 74.9362 22.6046 74.9362 24.31C74.9362 26.0165 74.8114 27.5545 74.5618 28.9282C74.3112 30.2987 74.0315 31.5882 73.7195 32.7955C73.4076 34.0018 73.1268 35.0719 72.8772 36.0078C72.6276 36.9447 72.5018 37.6737 72.5018 38.1916C72.5018 38.7136 72.6682 38.9715 73.002 38.9715C73.6249 38.9715 74.3944 38.5774 75.3106 37.787C76.2246 36.9978 77.1408 36.1346 78.0559 35.1977C78.971 34.2618 79.8123 33.3987 80.5828 32.6084C81.3513 31.818 81.8827 31.4218 82.1739 31.4218C82.7552 31.4218 83.0474 32.131 83.0474 33.5443C83.0474 36.457 81.5811 39.2845 78.6476 42.0298C75.7161 44.7741 72.585 46.1468 69.2584 46.1468C66.2624 46.1468 64.766 43.4233 64.766 37.9742C64.766 36.6016 64.9938 34.7079 65.4524 32.2954C65.9089 29.8849 66.1387 28.116 66.1387 26.9919Z" fill="#C8C9CB"/>
<path d="M99.8922 33.4186C100.599 31.9222 100.954 30.4653 100.954 29.0521C100.954 27.6378 100.494 26.9307 99.5802 26.9307C99.2059 26.9307 98.8939 27.2011 98.6443 27.7418C98.3948 28.2826 98.27 28.8025 98.27 29.3017C98.27 30.9655 98.8107 32.3382 99.8922 33.4186ZM100.454 40.6573C97.1677 44.5268 93.2254 46.46 88.6301 46.46C84.0328 46.46 80.5907 45.2838 78.304 42.9337C76.0162 40.5845 74.8931 37.6614 74.9347 34.1684C74.8931 29.2185 76.453 24.9549 79.6142 21.3766C82.7755 17.8004 86.9153 16.0118 92.0306 16.0118C94.36 16.0118 96.2307 16.303 97.646 16.8853C100.1 17.8826 101.327 18.8185 101.327 19.692C101.327 20.3586 99.6104 20.7017 96.1808 20.7225C92.7481 20.7433 89.878 21.9288 87.5684 24.2779C85.2619 26.6281 84.1056 29.5918 84.1056 33.1711C84.1056 35.0419 84.6577 36.6111 85.76 37.8808C86.8623 39.1505 88.4222 39.7838 90.4396 39.7838C92.457 39.7838 94.1312 39.3679 95.4623 38.5349C92.5079 36.5383 91.0313 33.6484 91.0313 29.8622C90.9897 27.8666 91.7082 26.0478 93.1849 24.4038C94.6615 22.7607 96.5541 21.9288 98.8627 21.908C101.17 21.8872 102.824 22.5216 103.823 23.811C104.821 25.1005 105.32 26.7539 105.32 28.7713C105.32 30.7887 104.842 32.9205 103.885 35.1677H104.26C106.09 35.1251 107.67 34.4804 109.002 33.2314C109.501 32.7323 109.926 32.2955 110.281 31.9222C110.633 31.5479 110.999 31.3607 111.373 31.3607C111.955 31.3607 112.246 32.048 112.246 33.4186C112.246 35.957 111.497 37.86 110 39.1277C108.503 40.3974 106.849 41.0307 105.04 41.0307C103.23 41.0307 101.702 40.9069 100.454 40.6573Z" fill="#C8C9CB"/>
<path d="M248.028 40.2164C248.028 43.6647 245.232 46.46 241.782 46.46C238.336 46.4579 235.541 43.6626 235.541 40.2143C235.541 36.7661 238.338 33.9708 241.785 33.9729C245.233 33.9729 248.028 36.7681 248.028 40.2164Z" fill="#8CD7F8"/>
<path d="M150.28 9.87638C150.821 9.87638 151.093 10.5845 151.093 11.9978C151.093 13.411 151.007 14.7431 150.843 15.991C150.468 18.4035 149.99 20.6497 149.407 22.7295C147.91 28.3855 147.161 31.6924 147.161 32.6491V41.8209C147.161 44.0671 146.308 45.6072 144.604 46.4402C143.811 46.8135 143.054 47.167 142.325 47.4998C141.597 47.8326 140.775 48 139.861 48C138.115 48 137.241 45.993 137.241 41.978C137.241 37.964 138.177 32.8986 140.048 26.7851C141.921 20.6705 143.875 16.0118 145.914 12.8078C146.328 12.1849 146.931 11.5412 147.723 10.8747C148.514 10.2091 149.366 9.87638 150.28 9.87638ZM177.422 32.3381C178.128 32.3381 178.483 33.2948 178.483 35.2082C178.483 36.2481 178.047 37.5075 177.173 38.9841C176.299 40.4608 175.165 41.8126 173.772 43.0376C172.378 44.2668 170.829 45.2765 169.124 46.0637C167.418 46.8561 165.796 47.2502 164.258 47.2502C162.719 47.2502 161.512 46.9601 160.639 46.3767C159.765 45.7944 159.079 45.0041 158.579 44.0068C157.873 42.5925 157.289 39.8982 156.833 35.9247C156.373 31.9544 155.917 29.1779 155.459 27.5962C154.377 27.3882 153.432 26.9629 152.62 26.3171C151.81 25.6724 151.403 24.8821 151.403 23.9462C151.403 23.0103 151.83 22.3333 152.684 21.9173C153.534 21.5035 154.513 21.2934 155.616 21.2934C156.716 21.2934 157.706 21.5648 158.579 22.1056C159.743 21.1488 160.69 20.0154 161.419 18.7041C162.146 17.3938 162.51 15.627 162.51 13.4016C162.51 11.1773 161.762 9.39802 160.263 8.06696C158.766 6.73485 156.573 6.07036 153.681 6.07036C150.79 6.07036 148.574 6.29914 147.037 6.75669C145.497 7.21424 144.175 7.71443 143.074 8.25414C141.972 8.79488 140.994 9.29404 140.141 9.75159C139.289 10.2091 138.488 10.4379 137.74 10.4379C136.992 10.4379 136.617 10.1987 136.617 9.72039C136.617 9.24308 137.011 8.46316 137.802 7.38063C138.592 6.29913 139.758 5.21869 141.297 4.13511C145.164 1.43242 149.533 0.0909576 154.399 0.111755C159.266 0.132553 163.279 1.0591 166.441 2.88828C170.142 5.05126 171.994 8.2947 171.994 12.6217C172.035 16.2 171.099 19.173 169.186 21.544C167.272 23.915 164.902 25.6214 162.073 26.6603C162.698 28.0319 163.206 29.5086 163.602 31.0892C163.996 32.6709 164.382 34.1278 164.756 35.4578C165.131 36.7899 165.555 37.8912 166.035 38.7647C166.512 39.6382 167.095 40.075 167.782 40.075C168.468 40.075 169.301 39.6704 170.278 38.8583C171.255 38.0472 172.222 37.1643 173.179 36.2076C174.135 35.2488 174.999 34.3649 175.768 33.5548C176.538 32.7426 177.088 32.3381 177.422 32.3381Z" fill="#8CD7F8"/>
<path d="M231.144 32.3381C231.851 32.3381 232.205 33.2948 232.205 35.2082C232.205 36.2481 231.768 37.5074 230.895 38.9841C230.021 40.4608 228.888 41.8126 227.494 43.0376C226.099 44.2668 224.549 45.2755 222.846 46.0637C221.14 46.8561 219.339 47.2502 217.449 47.2502C215.556 47.2502 214.08 46.6367 213.019 45.4096C211.957 44.1836 211.427 42.8099 211.427 41.2906C211.427 39.7734 211.676 38.0576 212.177 36.1441C212.676 34.2307 213.217 32.2341 213.799 30.1543C215.38 24.6231 216.19 20.7329 216.232 18.4867C216.232 17.53 216.106 16.7917 215.857 16.2707C215.607 15.7507 215.13 15.4908 214.423 15.4908C213.174 15.4908 211.843 16.2405 210.43 17.7369C209.014 19.2354 207.683 21.1488 206.436 23.4772C203.565 28.8025 202.048 34.002 201.881 39.0767C201.964 39.66 202.048 40.2413 202.131 40.8237C202.214 41.4071 202.255 42.03 202.255 42.6945C202.255 44.0266 201.601 45.2432 200.291 46.3466C198.98 47.4468 197.514 48 195.892 48C194.935 48 194.228 47.53 193.769 46.5941C193.31 45.6602 193.082 44.5039 193.082 43.1333C193.082 41.7606 193.393 39.8878 194.019 37.5168C194.644 35.1448 195.329 32.6283 196.078 29.9661C198.075 22.9375 199.095 17.6964 199.135 14.2439C199.135 12.4959 198.918 11.1242 198.481 10.1249C198.044 9.12765 197.201 8.6285 195.954 8.6285C193.708 8.6285 191.48 10.2299 189.276 13.4328C187.07 16.6367 185.097 21.6064 183.348 28.3449C182.891 30.092 182.538 31.6112 182.288 32.8986L182.225 34.0852C183.015 37.913 183.411 40.4077 183.411 41.5734C183.411 43.986 182.557 45.6072 180.854 46.4402C180.062 46.8135 179.301 47.167 178.574 47.4998C177.848 47.8326 177.068 48 176.235 48C174.155 48 173.115 46.0128 173.115 42.0404C173.115 38.068 174.218 30.301 176.424 18.7352C177.212 14.5767 177.608 12.2473 177.608 11.7482C177.608 8.37788 176.755 6.69429 175.051 6.69429C174.468 6.69429 173.938 6.86067 173.458 7.19344C172.981 7.52621 172.501 7.87873 172.024 8.25414C171.545 8.6285 171.058 8.98206 170.558 9.31483C170.059 9.64759 169.486 9.81398 168.842 9.81398C168.196 9.81398 167.875 9.2514 167.875 8.12831C167.875 5.84158 168.936 3.96976 171.058 2.51391C173.095 1.01542 175.571 0.267731 178.481 0.267731C182.225 0.267731 184.43 2.01476 185.097 5.50881C185.261 6.54871 185.387 7.651 185.47 8.81464C188.547 3.0349 192.436 0.142944 197.139 0.142944C202.255 0.142944 205.188 2.59814 205.937 7.50541C206.187 8.91967 206.291 10.4379 206.248 12.0602V12.5583C208.951 8.81464 212.154 6.94387 215.857 6.94387C221.099 6.94387 223.718 10.1051 223.718 16.4277C223.718 19.173 223.292 22.3863 222.439 26.0665C221.587 29.7488 220.963 32.3912 220.569 33.9916C220.172 35.592 219.976 36.8305 219.976 37.704C219.976 39.2846 220.526 40.0739 221.629 40.0739C222.73 40.0739 225.361 37.913 229.521 33.585C230.271 32.7541 230.812 32.3381 231.144 32.3381Z" fill="#8CD7F8"/>
<path d="M142.281 24.058C143.329 24.058 143.858 25.0615 143.858 27.0654C143.858 29.0703 143.406 31.2229 142.499 33.5242C141.595 35.8255 140.223 38.0436 138.384 40.1775C136.543 42.3145 134.194 44.1405 131.334 45.6494C128.47 47.1625 125.099 47.9185 121.218 47.9185C117.333 47.9185 113.934 46.6227 111.016 44.0251C108.095 41.4274 106.637 37.6796 106.637 32.7828C106.637 27.889 107.321 23.4507 108.694 19.4742C110.065 15.4976 111.875 12.0628 114.123 9.17089C116.37 6.2779 118.926 4.02653 121.787 2.41573C124.648 0.807007 127.361 4.57764e-05 129.93 4.57764e-05C134.427 4.57764e-05 136.675 2.00705 136.675 6.01481C136.675 8.31714 136.253 10.1557 135.406 11.5367C134.557 12.9156 133.698 13.606 132.822 13.606C131.652 13.606 130.633 13.1475 129.758 12.2251C128.88 11.3068 127.917 10.8295 126.866 10.7973C125.813 10.7651 122.96 10.686 120.533 14.5856C118.837 17.3112 119.098 17.0346 118.453 18.8752C117.17 22.5575 116.417 25.3839 116.417 30.313C116.475 32.6798 118.591 36.2987 120.46 37.4831C121.743 38.2703 123.275 38.9327 125.015 38.7133C128.767 38.2422 130.873 36.463 132.406 34.8199C133.822 33.3027 135.069 31.8645 136.413 30.3172C137.754 28.774 138.936 27.3462 139.96 26.0297C140.981 24.7153 141.753 24.058 142.281 24.058Z" fill="#8CD7F8"/>
</svg>
