<svg width="242" height="40" viewBox="0 0 242 40" fill="none" xmlns="http://www.w3.org/2000/svg">
<path d="M152.843 4.90909C148.476 7.27273 148.658 14.9091 153.389 16.7273C158.484 18.5455 163.942 18.7273 169.037 20C170.311 20.3636 171.585 20.9091 172.13 22.1818C173.404 24.7273 172.312 28.5455 169.401 29.4545C165.216 30.7273 160.303 30.7273 156.3 29.0909C153.571 28 152.297 25.2727 152.115 22.7273C151.024 22.7273 149.75 22.7273 148.658 22.9091C148.84 25.4545 149.386 28.1818 151.388 29.8182C154.663 32.3636 158.848 32.7273 162.851 32.9091C166.49 32.9091 170.493 32.5455 173.586 30.5455C177.225 28 177.589 21.2727 173.222 19.0909C169.219 17.0909 164.67 16.9091 160.485 16C158.484 15.4545 156.118 15.2727 154.299 14C151.933 11.8182 153.025 7.27272 156.118 6.54545C160.121 5.45454 164.488 5.27273 168.309 6.72727C170.675 7.45454 171.585 10 171.948 12C173.04 12 174.132 12 175.406 12C175.406 9.81818 174.678 7.45454 172.858 6C169.947 3.63636 165.944 3.45455 162.487 3.45455C159.394 3.27273 155.936 3.27273 152.843 4.90909Z" fill="#326690"/>
<path d="M23.1096 5.81805C21.29 4.18169 18.5607 3.63623 16.1953 3.63623C10.9186 3.63623 5.64193 3.81805 0.365234 3.81805C0.365234 13.0908 0.365234 22.5453 0.365234 31.8181C1.27501 31.8181 2.18478 31.8181 3.09456 31.8181C3.09456 27.818 2.9126 23.818 3.09456 19.9999C7.64343 19.9999 12.0104 19.9999 16.5592 19.9999C19.8344 19.818 23.6555 18.3635 24.9291 15.0908C26.0209 11.9999 25.657 7.99987 23.1096 5.81805ZM21.654 14.5453C20.7442 16.909 18.0149 17.6362 15.6494 17.818C11.4645 17.9999 7.27953 17.818 3.27652 17.818C3.27652 13.9999 3.27652 9.99987 3.27652 6.18169C7.27953 6.18169 11.2825 6.18169 15.2855 6.18169C17.287 6.18169 19.6525 6.54532 20.9261 8.18168C22.1998 9.81805 22.3818 12.3635 21.654 14.5453Z" fill="black"/>
<path d="M214.891 3.81805C214.891 13.0908 214.891 22.3635 214.891 31.8181C222.897 31.8181 231.085 31.8181 239.091 31.8181C239.091 31.0908 239.091 30.3635 239.091 29.4544C232.176 29.2726 225.262 29.4544 218.166 29.2726C218.166 20.7271 218.166 12.1817 218.166 3.63623C217.074 3.81805 215.982 3.81805 214.891 3.81805Z" fill="#326690"/>
<path d="M75.1489 7.45428C75.1489 9.45428 75.1489 11.4543 75.1489 13.4543C73.8752 13.4543 72.7834 13.4543 71.5098 13.4543C71.5098 13.9997 71.5098 14.727 71.5098 15.2725C72.7834 15.2725 74.0571 15.2725 75.1489 15.2725C75.1489 19.4543 75.1489 23.8179 75.1489 27.9997C75.1489 29.2725 75.5128 30.5452 76.6045 31.2725C78.606 32.1816 80.7895 31.9997 82.9729 31.8179C82.9729 31.2725 82.9729 30.5452 82.9729 29.9997C81.5173 30.1816 80.0616 30.3634 78.788 29.6361C77.8782 29.0906 78.0601 27.9997 77.8782 27.0906C77.8782 23.0906 77.8782 19.2725 77.8782 15.2725C79.5158 15.2725 81.1534 15.2725 82.791 15.2725C82.791 14.5452 82.791 13.9997 82.609 13.2725C80.9714 13.2725 79.3338 13.2725 77.6962 13.2725C77.6962 11.2725 77.6962 9.27246 77.6962 7.27246C77.1504 7.45428 76.0586 7.45428 75.1489 7.45428Z" fill="white"/>
<path d="M52.0396 14.5454C49.4922 16.1818 49.4922 20.909 52.5854 22.1818C56.7704 23.6363 61.5012 23.2727 65.8681 24.5454C68.0516 25.2727 68.2335 28.5454 66.232 29.6363C63.3208 31.0909 59.8636 30.909 56.7704 30.3636C54.5869 29.9999 52.7674 28.5454 52.5854 26.1818C51.4937 26.1818 50.402 26.1818 49.4922 26.1818C49.8561 27.8181 50.22 29.6363 51.6757 30.7272C54.0411 32.3636 57.1343 32.3636 59.8636 32.5454C62.7749 32.5454 65.8681 32.3636 68.4155 30.909C70.599 29.6363 71.3268 26.7272 70.0531 24.7272C69.1433 23.2727 67.5057 22.7272 65.8681 22.3636C62.411 21.6363 58.7719 21.6363 55.3148 20.909C54.0411 20.5454 52.9493 19.6363 52.9493 18.3636C52.9493 16.5454 54.9508 15.6363 56.5884 15.2727C59.1358 14.909 62.0471 14.7272 64.5944 15.8181C66.0501 16.3636 66.414 17.8181 66.7779 19.2727C67.8696 19.2727 68.7794 19.2727 69.8711 19.2727C69.6892 17.6363 69.1433 15.8181 67.6877 14.909C64.9584 13.0909 61.6832 13.0909 58.5899 13.2727C56.4065 13.0909 54.0411 13.2727 52.0396 14.5454Z" fill="white"/>
<path d="M116.636 13.6363C115.362 14.1817 114.634 15.4545 113.906 16.7272C113.906 15.6363 113.906 14.5454 113.906 13.6363C112.996 13.6363 112.087 13.6363 110.995 13.6363C110.813 19.8181 110.995 25.8181 110.995 31.9999C111.905 31.9999 112.814 31.9999 113.724 31.9999C113.724 28.909 113.724 25.6363 113.724 22.5454C113.724 20.3636 114.452 17.8181 116.272 16.5454C118.273 15.0908 120.82 15.4545 123.186 15.4545C123.186 14.7272 123.186 13.8181 123.186 13.0908C121.002 12.909 118.819 12.7272 116.636 13.6363Z" fill="white"/>
<path d="M185.051 5.27267C189.054 3.27267 193.603 2.90903 197.97 3.27267C202.155 3.63631 206.34 5.09085 209.069 8.36358C212.526 11.9999 213.254 17.8181 211.798 22.5454C211.071 25.2727 209.251 27.2727 207.25 29.0909C208.887 30.1818 210.525 31.2727 212.162 32.5454C211.435 33.2727 210.707 33.8181 209.979 34.5454C208.341 33.4545 206.704 32.1818 205.066 31.2727C203.792 31.2727 202.519 31.9999 201.063 32.3636C197.424 33.0908 193.421 33.0908 189.782 32.3636C185.779 31.6363 181.776 29.2727 179.592 25.6363C177.409 22.1818 177.227 17.6363 178.137 13.8181C179.228 9.99994 181.776 6.90904 185.051 5.27267ZM190.51 5.99994C186.689 6.90903 183.05 9.63631 181.776 13.4545C180.502 17.6363 180.866 22.5454 183.959 25.9999C186.689 29.0909 190.692 30.3636 194.695 30.3636C199.062 30.5454 203.792 29.2727 206.704 25.8181C210.707 20.7272 210.161 12.5454 204.884 8.5454C200.881 5.09085 195.422 4.90903 190.51 5.99994Z" fill="#326690"/>
<path d="M75.1482 7.45459C76.058 7.45459 76.9678 7.45459 78.0595 7.45459C78.0595 9.45459 78.0595 11.4546 78.0595 13.4546C79.6971 13.4546 81.3347 13.4546 82.9723 13.4546C82.9723 14.1819 82.9723 14.7273 83.1542 15.4546C81.5167 15.4546 79.8791 15.4546 78.2415 15.4546C78.2415 19.4546 78.2415 23.2728 78.2415 27.2728C78.2415 28.1819 78.2415 29.2728 79.1512 29.8182C80.4249 30.3637 81.8806 30.1819 83.3362 30.1819C83.3362 30.7273 83.3362 31.4546 83.3362 32C81.1528 32.1819 78.9693 32.3637 76.9678 31.4546C75.6941 30.9091 75.3302 29.4546 75.5121 28.1819C75.5121 24 75.5121 19.6364 75.5121 15.4546C74.2385 15.4546 72.9648 15.4546 71.873 15.4546C71.873 14.9091 71.873 14.1819 71.873 13.6364C73.1467 13.6364 74.2385 13.6364 75.5121 13.6364C75.1482 11.4546 75.1482 9.45459 75.1482 7.45459Z" fill="black"/>
<path d="M43.8518 14.5454C40.5766 12.7272 36.5736 12.5454 32.9345 13.0909C29.8413 13.6363 26.93 15.2727 25.6563 18.1818C24.3826 21.0909 24.3826 24.5454 25.8383 27.4545C27.4759 30.5454 30.933 32.1818 34.2082 32.3636C38.3932 32.7272 43.124 32.1818 46.2172 28.909C49.4924 24.7272 48.7646 17.2727 43.8518 14.5454ZM43.3059 28.1818C41.6684 29.8181 39.3029 30.5454 37.1195 30.5454C34.5721 30.7272 31.8428 30.1818 30.0232 28.5454C27.6578 26.3636 27.2939 22.7272 28.2037 19.6363C29.1135 16.909 31.6608 15.2727 34.3902 14.9091C36.9375 14.5454 39.8488 14.7272 42.2142 16.1818C44.0338 17.2727 44.9435 19.2727 45.1255 21.2727C45.4894 23.8181 45.1255 26.3636 43.3059 28.1818Z" fill="black"/>
<path d="M52.0418 14.5453C53.8614 13.2725 56.2268 13.0907 58.4102 12.9089C61.5035 12.7271 64.9606 12.7271 67.508 14.5453C68.9636 15.4544 69.5095 17.2725 69.6915 18.9089C68.5997 18.9089 67.6899 18.9089 66.5982 18.9089C66.4163 17.4544 65.8704 16.1816 64.4148 15.4544C61.8674 14.3634 59.1381 14.3635 56.4087 14.9089C54.7711 15.0907 52.7696 15.9998 52.7696 17.9998C52.5877 19.2725 53.8614 20.3634 55.1351 20.5453C58.5922 21.4544 62.2313 21.2725 65.6884 21.9998C67.326 22.3634 68.9636 23.0907 69.8734 24.3635C71.1471 26.3635 70.4193 29.4544 68.2358 30.5453C65.6884 31.9998 62.5952 32.1816 59.6839 32.1816C56.9546 31.9998 53.8614 31.9998 51.496 30.3635C50.0403 29.2725 49.4945 27.6362 49.3125 25.818C50.4042 25.818 51.496 25.818 52.4057 25.818C52.4057 28.1816 54.4072 29.818 56.5907 29.9998C59.6839 30.3634 63.1411 30.7271 66.0524 29.2725C68.0539 28.1816 67.8719 24.9089 65.6884 24.1816C61.3215 22.9089 56.5907 23.2725 52.4057 21.818C49.4945 20.9089 49.4945 16.1816 52.0418 14.5453Z" fill="black"/>
<path d="M91.7051 13.2727C94.6164 12.5454 97.8916 12.5454 100.803 13.4545C102.44 13.9999 103.714 15.2727 104.988 16.3636C104.988 15.2727 105.17 14.3636 105.17 13.4545C106.08 13.4545 106.989 13.4545 107.899 13.4545C108.081 19.0909 107.899 24.7272 108.081 30.3636C108.263 32.7272 107.717 35.2727 105.898 36.909C103.532 39.0909 100.075 39.4545 96.9819 39.4545C94.2525 39.4545 91.3413 39.2727 88.7939 37.9999C87.1563 37.0909 86.2465 35.2727 85.8826 33.4545C86.7924 33.4545 87.7021 33.4545 88.6119 33.4545C89.1578 34.7272 89.7037 36.1818 90.9773 36.7272C92.9788 37.6363 95.1623 37.6363 97.3458 37.6363C99.7112 37.4545 102.441 37.0909 103.896 35.0909C105.352 33.0909 104.988 30.5454 104.988 28.1818C102.077 31.2727 97.5277 31.8181 93.5247 31.2727C90.9773 30.909 88.43 29.9999 86.6104 27.9999C84.6089 25.4545 84.427 21.9999 85.1548 19.0909C85.8826 16.1818 88.7939 13.9999 91.7051 13.2727ZM94.0706 15.0909C92.0691 15.4545 89.8856 16.3636 88.7939 18.1818C87.5202 20.3636 87.5202 23.2727 88.248 25.4545C89.1578 27.8181 91.8871 29.0909 94.2525 29.4545C97.3458 29.8181 100.985 29.4545 103.168 27.0909C105.716 23.9999 105.352 18.7272 102.077 16.3636C99.8931 14.7272 96.7999 14.7272 94.0706 15.0909Z" fill="black"/>
<path d="M116.633 13.6366C118.816 12.7276 120.999 12.9094 123.183 12.9094C123.183 13.6366 123.183 14.5457 123.183 15.273C120.817 15.273 118.27 14.9094 116.269 16.3639C114.449 17.6366 113.721 20.1821 113.721 22.3639C113.721 25.4548 113.721 28.7276 113.721 31.8185C112.811 31.8185 111.902 31.8185 110.992 31.8185C110.81 25.6366 110.81 19.6367 110.992 13.4548C111.902 13.4548 112.811 13.4548 113.903 13.4548C113.903 14.5457 113.903 15.6366 113.903 16.5457C114.631 15.4548 115.359 14.1821 116.633 13.6366Z" fill="black"/>
<path d="M124.277 17.4546C126.097 14.3637 129.918 13.0909 133.375 12.9091C137.014 12.7273 141.017 13.2728 143.564 16C145.566 17.8182 146.112 20.5455 146.294 23.2728C139.379 23.2728 132.647 23.2728 125.733 23.2728C125.915 25.0909 126.461 27.0909 127.916 28.3637C130.646 30.7273 134.649 31.0909 137.924 30.1818C140.107 29.6364 141.927 28 142.655 25.8182C143.746 25.8182 144.838 25.8182 145.748 25.8182C144.838 28.9091 142.109 31.0909 139.015 31.8182C134.831 32.7273 129.918 32.5455 126.279 30C122.64 27.4546 121.912 21.4546 124.277 17.4546ZM129.554 16C127.552 17.0909 126.461 19.2728 126.097 21.4546C131.919 21.4546 137.742 21.4546 143.564 21.4546C143.382 20.1818 143.019 18.7273 142.109 17.8182C139.015 14.1818 133.375 13.8182 129.554 16Z" fill="black"/>
</svg>
